<svg width="17" height="17" viewBox="0 0 17 17" fill="none" xmlns="http://www.w3.org/2000/svg">
<g clip-path="url(#clip0_2931_6615)">
<path d="M10.2007 10.0091C10.0179 10.2053 9.79742 10.3627 9.55245 10.4719C9.30749 10.581 9.04304 10.6397 8.7749 10.6444C8.50676 10.6492 8.24041 10.5998 7.99175 10.4994C7.74308 10.399 7.51719 10.2495 7.32756 10.0598C7.13792 9.87018 6.98843 9.6443 6.88799 9.39563C6.78755 9.14697 6.73822 8.88062 6.74295 8.61248C6.74768 8.34433 6.80637 8.07989 6.91552 7.83492C7.02467 7.58996 7.18204 7.36948 7.37825 7.18666M12.7436 12.552C11.6057 13.4194 10.2201 13.8999 8.78949 13.9233C4.12975 13.9233 1.46704 8.59789 1.46704 8.59789C2.29507 7.05478 3.44353 5.7066 4.83537 4.64377L12.7436 12.552ZM7.39156 3.43224C7.84977 3.32499 8.3189 3.27137 8.78949 3.27248C13.4492 3.27248 16.1119 8.59789 16.1119 8.59789C15.7079 9.35384 15.226 10.0655 14.6741 10.7214L7.39156 3.43224Z" stroke="#162A75" stroke-width="2.04824" stroke-linecap="round" stroke-linejoin="round"/>
<path d="M1.46704 1.27539L16.1119 15.9203" stroke="#162A75" stroke-width="2.04824" stroke-linecap="round" stroke-linejoin="round"/>
</g>
<defs>
<clipPath id="clip0_2931_6615">
<rect width="15.9762" height="15.9762" fill="white" transform="translate(0.80127 0.609375)"/>
</clipPath>
</defs>
</svg>
