<svg width="20" height="20" viewBox="0 0 20 20" fill="none" xmlns="http://www.w3.org/2000/svg">
<path d="M10.0002 9.99999C12.3013 9.99999 14.1668 8.13451 14.1668 5.83332C14.1668 3.53214 12.3013 1.66666 10.0002 1.66666C7.69898 1.66666 5.8335 3.53214 5.8335 5.83332C5.8335 8.13451 7.69898 9.99999 10.0002 9.99999Z" stroke="#718096" stroke-width="1.25" stroke-linecap="round" stroke-linejoin="round"/>
<path d="M2.8418 18.3333C2.8418 15.1083 6.05013 12.5 10.0001 12.5C10.8001 12.5 11.5751 12.6083 12.3001 12.8083" stroke="#718096" stroke-width="1.25" stroke-linecap="round" stroke-linejoin="round"/>
<path d="M18.3332 15C18.3332 15.2667 18.2998 15.525 18.2332 15.775C18.1582 16.1083 18.0248 16.4333 17.8498 16.7167C17.2748 17.6833 16.2165 18.3333 14.9998 18.3333C14.1415 18.3333 13.3665 18.0083 12.7832 17.475C12.5332 17.2583 12.3165 17 12.1498 16.7167C11.8415 16.2167 11.6665 15.625 11.6665 15C11.6665 14.1 12.0248 13.275 12.6082 12.675C13.2165 12.05 14.0665 11.6667 14.9998 11.6667C15.9832 11.6667 16.8748 12.0917 17.4748 12.775C18.0082 13.3667 18.3332 14.15 18.3332 15Z" stroke="#718096" stroke-width="1.25" stroke-miterlimit="10" stroke-linecap="round" stroke-linejoin="round"/>
<path d="M16.2411 14.9834H13.7578" stroke="#718096" stroke-width="1.25" stroke-miterlimit="10" stroke-linecap="round" stroke-linejoin="round"/>
<path d="M14.9995 13.7668V16.2584" stroke="#718096" stroke-width="1.25" stroke-miterlimit="10" stroke-linecap="round" stroke-linejoin="round"/>
</svg>
