<svg width="44" height="44" viewBox="0 0 44 44" fill="none" xmlns="http://www.w3.org/2000/svg">
<rect width="44" height="44" rx="3.85965" fill="#5087E1" fill-opacity="0.2"/>
<g clip-path="url(#clip0_18_773)">
<path d="M31.4537 15.3269H16.2309C16.0526 15.3269 15.908 15.4715 15.908 15.6499C15.908 15.8283 16.0526 15.9728 16.2309 15.9728H31.4537C31.9502 15.9728 32.3541 16.3767 32.3541 16.8732V23.7496C32.3541 24.2461 31.9502 24.65 31.4537 24.65H30.6804V22.5458C30.6804 22.3674 30.5358 22.2228 30.3575 22.2228H13.6425C13.4642 22.2228 13.3196 22.3674 13.3196 22.5458V24.65H12.5463C12.0498 24.65 11.6459 24.2461 11.6459 23.7496V16.8732C11.6459 16.3767 12.0498 15.9728 12.5463 15.9728H14.9391C15.1174 15.9728 15.262 15.8283 15.262 15.6499C15.262 15.4715 15.1174 15.3269 14.9391 15.3269H12.5463C11.6937 15.3269 11 16.0206 11 16.8732V23.7496C11 24.6022 11.6937 25.2959 12.5463 25.2959H15.9081C16.0864 25.2959 16.231 25.1513 16.231 24.9729C16.231 24.7946 16.0864 24.65 15.9081 24.65H13.9655V24.0823H26.8002C26.9785 24.0823 27.1231 23.9377 27.1231 23.7593C27.1231 23.5809 26.9785 23.4364 26.8002 23.4364H13.9655V22.8687H30.0345V23.4364H28.092C27.9136 23.4364 27.769 23.5809 27.769 23.7593C27.769 23.9377 27.9136 24.0823 28.092 24.0823H30.0345V24.65H17.1999C17.0215 24.65 16.8769 24.7946 16.8769 24.9729C16.8769 25.1513 17.0215 25.2959 17.1999 25.2959H31.4537C32.3064 25.2959 33 24.6022 33 23.7496V16.8732C33 16.0206 32.3063 15.3269 31.4537 15.3269Z" fill="#5087E1"/>
<path d="M30.3574 17.9528C30.5358 17.9528 30.6804 17.8082 30.6804 17.6298C30.6804 17.4514 30.5358 17.3069 30.3574 17.3069H29.4023C29.224 17.3069 29.0794 17.4514 29.0794 17.6298C29.0794 17.8082 29.224 17.9528 29.4023 17.9528H30.3574Z" fill="#5087E1"/>
<path d="M27.9288 17.9528C28.1071 17.9528 28.2517 17.8082 28.2517 17.6298C28.2517 17.4514 28.1071 17.3069 27.9288 17.3069H21.8161C21.6377 17.3069 21.4931 17.4514 21.4931 17.6298C21.4931 17.8082 21.6377 17.9528 21.8161 17.9528H27.9288Z" fill="#5087E1"/>
<path d="M17.075 26.1599C16.8967 26.1599 16.7521 26.3045 16.7521 26.4829C16.7521 26.4925 16.7417 27.4499 15.8458 28.0866C15.7004 28.1899 15.6663 28.3916 15.7697 28.537C15.8327 28.6256 15.9321 28.6729 16.0332 28.6729C16.0979 28.6729 16.1633 28.6534 16.22 28.6131C17.3847 27.7853 17.398 26.5356 17.398 26.4828C17.398 26.3045 17.2534 26.1599 17.075 26.1599Z" fill="#5087E1"/>
<path d="M19.3875 26.1599C19.2092 26.1599 19.0646 26.3045 19.0646 26.4829V28.3499C19.0646 28.5283 19.2092 28.6729 19.3875 28.6729C19.5659 28.6729 19.7105 28.5283 19.7105 28.3499V26.4829C19.7105 26.3045 19.5659 26.1599 19.3875 26.1599Z" fill="#5087E1"/>
<path d="M22.0909 26.1599C21.9126 26.1599 21.768 26.3045 21.768 26.4829V28.3499C21.768 28.5283 21.9126 28.6729 22.0909 28.6729C22.2693 28.6729 22.4139 28.5283 22.4139 28.3499V26.4829C22.4139 26.3045 22.2693 26.1599 22.0909 26.1599Z" fill="#5087E1"/>
<path d="M28.1541 28.0866C27.2703 27.4584 27.2483 26.5244 27.2479 26.4814C27.2471 26.3037 27.1028 26.1599 26.9249 26.1599C26.7465 26.1599 26.6019 26.3045 26.6019 26.4829C26.6019 26.5357 26.6153 27.7854 27.78 28.6131C27.8367 28.6535 27.9021 28.6729 27.9668 28.6729C28.0678 28.6729 28.1673 28.6256 28.2303 28.537C28.3336 28.3916 28.2995 28.1899 28.1541 28.0866Z" fill="#5087E1"/>
<path d="M24.6124 26.1599C24.4341 26.1599 24.2895 26.3045 24.2895 26.4829V28.3499C24.2895 28.5283 24.4341 28.6729 24.6124 28.6729C24.7908 28.6729 24.9354 28.5283 24.9354 28.3499V26.4829C24.9354 26.3045 24.7908 26.1599 24.6124 26.1599Z" fill="#5087E1"/>
</g>
<defs>
<clipPath id="clip0_18_773">
<rect width="22" height="22" fill="white" transform="translate(11 11)"/>
</clipPath>
</defs>
</svg>
