<svg width="54" height="54" viewBox="0 0 54 54" fill="none" xmlns="http://www.w3.org/2000/svg">
<circle opacity="0.2" cx="26.9388" cy="26.9388" r="26.9388" fill="#6FCF97"/>
<path d="M30.125 26.9531H28.7656C28.4051 26.9531 28.0593 27.0963 27.8044 27.3513C27.5495 27.6062 27.4062 27.952 27.4062 28.3125V29.6719H30.125V26.9531Z" fill="#27AE60"/>
<path d="M28.7656 35.5625C29.2661 35.5625 29.6719 35.1568 29.6719 34.6562C29.6719 34.1557 29.2661 33.75 28.7656 33.75C28.2651 33.75 27.8594 34.1557 27.8594 34.6562C27.8594 35.1568 28.2651 35.5625 28.7656 35.5625Z" fill="#27AE60"/>
<path d="M31.4844 22.875C32.571 22.8759 33.6475 23.084 34.6562 23.4881V18.3438H13.8125V34.2031C13.8125 34.5637 13.9557 34.9094 14.2107 35.1643C14.4656 35.4193 14.8113 35.5625 15.1719 35.5625H23.905C23.1984 34.2513 22.8442 32.7791 22.8772 31.29C22.9101 29.8008 23.329 28.3458 24.0929 27.0671C24.8568 25.7884 25.9395 24.7299 27.2351 23.995C28.5307 23.2602 29.9949 22.8743 31.4844 22.875V22.875Z" fill="#27AE60"/>
<path d="M33.75 28.3125C33.75 27.952 33.6068 27.6062 33.3518 27.3513C33.0969 27.0963 32.7512 26.9531 32.3906 26.9531H31.0312V29.6719H33.75V28.3125Z" fill="#27AE60"/>
<path d="M34.2031 35.5625C34.7036 35.5625 35.1094 35.1568 35.1094 34.6562C35.1094 34.1557 34.7036 33.75 34.2031 33.75C33.7026 33.75 33.2969 34.1557 33.2969 34.6562C33.2969 35.1568 33.7026 35.5625 34.2031 35.5625Z" fill="#27AE60"/>
<path d="M31.4843 23.7812C29.9608 23.7812 28.4715 24.233 27.2047 25.0795C25.9379 25.9259 24.9506 27.129 24.3676 28.5365C23.7845 29.9441 23.632 31.4929 23.9292 32.9872C24.2264 34.4814 24.9601 35.854 26.0374 36.9313C27.1147 38.0086 28.4873 38.7423 29.9815 39.0395C31.4758 39.3367 33.0246 39.1842 34.4322 38.6011C35.8397 38.0181 37.0428 37.0308 37.8892 35.764C38.7357 34.4972 39.1874 33.0079 39.1874 31.4844C39.1852 29.4421 38.3729 27.4841 36.9287 26.04C35.4846 24.5958 33.5266 23.7835 31.4843 23.7812V23.7812ZM36.9218 35.1094H35.9512C35.8523 35.498 35.6268 35.8425 35.3102 36.0886C34.9936 36.3347 34.604 36.4683 34.2031 36.4683C33.8021 36.4683 33.4125 36.3347 33.096 36.0886C32.7794 35.8425 32.5538 35.498 32.4549 35.1094H30.5137C30.4148 35.498 30.1893 35.8425 29.8727 36.0886C29.5561 36.3347 29.1665 36.4683 28.7656 36.4683C28.3646 36.4683 27.975 36.3347 27.6585 36.0886C27.3419 35.8425 27.1163 35.498 27.0174 35.1094H26.9531C26.5925 35.1094 26.2468 34.9662 25.9918 34.7112C25.7369 34.4563 25.5937 34.1105 25.5937 33.75V31.0312C25.594 30.7502 25.6813 30.4761 25.8436 30.2466C26.0058 30.0171 26.2351 29.8434 26.4999 29.7494V28.3125C26.5007 27.7118 26.7396 27.136 27.1643 26.7113C27.5891 26.2865 28.1649 26.0476 28.7656 26.0469H32.3906C32.9912 26.0476 33.5671 26.2865 33.9918 26.7113C34.4165 27.136 34.6555 27.7118 34.6562 28.3125V29.6719H35.1093C35.71 29.6726 36.2858 29.9115 36.7106 30.3363C37.1353 30.761 37.3742 31.3368 37.3749 31.9375V34.6562C37.3749 34.7764 37.3272 34.8917 37.2422 34.9767C37.1572 35.0616 37.042 35.1094 36.9218 35.1094V35.1094Z" fill="#27AE60"/>
<path d="M34.6562 16.0781C34.6562 15.7176 34.513 15.3718 34.2581 15.1169C34.0032 14.862 33.6574 14.7188 33.2969 14.7188H31.9375V15.625H31.0312V14.7188H28.3125V15.625H27.4062V14.7188H24.6875V15.625H23.7812V14.7188H21.0625V15.625H20.1562V14.7188H17.4375V15.625H16.5312V14.7188H15.1719C14.8113 14.7188 14.4656 14.862 14.2107 15.1169C13.9557 15.3718 13.8125 15.7176 13.8125 16.0781V17.4375H34.6562V16.0781Z" fill="#27AE60"/>
<path d="M35.1094 30.5781H26.9531C26.8329 30.5781 26.7177 30.6259 26.6327 30.7108C26.5477 30.7958 26.5 30.9111 26.5 31.0312V33.75C26.5 33.8702 26.5477 33.9854 26.6327 34.0704C26.7177 34.1554 26.8329 34.2031 26.9531 34.2031H27.0175C27.1164 33.8145 27.3419 33.47 27.6585 33.2239C27.9751 32.9778 28.3646 32.8442 28.7656 32.8442C29.1666 32.8442 29.5562 32.9778 29.8727 33.2239C30.1893 33.47 30.4149 33.8145 30.5138 34.2031H32.455C32.5539 33.8145 32.7794 33.47 33.096 33.2239C33.4126 32.9778 33.8021 32.8442 34.2031 32.8442C34.6041 32.8442 34.9937 32.9778 35.3102 33.2239C35.6268 33.47 35.8524 33.8145 35.9513 34.2031H36.4688V31.9375C36.4688 31.577 36.3255 31.2312 36.0706 30.9763C35.8157 30.7213 35.4699 30.5781 35.1094 30.5781Z" fill="#27AE60"/>
<path d="M23.7812 12.9062H24.6875V14.7188H23.7812V12.9062Z" fill="#27AE60"/>
<path d="M20.1562 12.9062H21.0625V14.7188H20.1562V12.9062Z" fill="#27AE60"/>
<path d="M16.5312 12.9062H17.4375V14.7188H16.5312V12.9062Z" fill="#27AE60"/>
<path d="M27.4062 12.9062H28.3125V14.7188H27.4062V12.9062Z" fill="#27AE60"/>
<path d="M31.0312 12.9062H31.9375V14.7188H31.0312V12.9062Z" fill="#27AE60"/>
</svg>
