<svg width="52" height="52" viewBox="0 0 52 52" fill="none" xmlns="http://www.w3.org/2000/svg">
<g clip-path="url(#clip0_2819_6615)">
<path d="M34.751 23.9509C34.5189 23.9807 34.3155 24.1208 34.2048 24.3269C33.9313 24.8325 33.5765 25.1225 33.2333 25.1225C32.634 25.1225 32.0559 24.2795 31.8578 23.1137C31.7993 22.7873 31.5935 22.506 31.3 22.3515V16.4167C31.3 15.6159 30.6508 14.9667 29.85 14.9667H28.8833V14.4833C28.8833 14.2164 28.6669 14 28.4 14C28.1331 14 27.9167 14.2164 27.9167 14.4833V14.9667H25.9833V14.4833C25.9833 14.2164 25.7669 14 25.5 14C25.2331 14 25.0167 14.2164 25.0167 14.4833V14.9667H23.0833V14.4833C23.0833 14.2164 22.8669 14 22.6 14C22.3331 14 22.1167 14.2164 22.1167 14.4833V14.9667H20.1833V14.4833C20.1833 14.2164 19.9669 14 19.7 14C19.4331 14 19.2167 14.2164 19.2167 14.4833V14.9667H17.2833V14.4833C17.2833 14.2164 17.0669 14 16.8 14C16.5331 14 16.3167 14.2164 16.3167 14.4833V14.9667H14.3833V14.4833C14.3833 14.2164 14.1669 14 13.9 14C13.6331 14 13.4167 14.2164 13.4167 14.4833V14.9667H12.45C11.6492 14.9667 11 15.6159 11 16.4167V33.8167C11 34.6175 11.6492 35.2667 12.45 35.2667H22.6556C22.7132 35.7842 22.8158 36.2957 22.962 36.7954C23.9282 40.0748 26.7361 42.4768 30.1255 42.9236C30.5066 42.9738 30.8905 42.9993 31.2749 43C33.5866 43.0067 35.8059 42.093 37.4429 40.4607C39.08 38.8284 40 36.6117 40 34.3C40 30.95 37.6694 26.6711 35.3677 24.1761C35.2115 24.0045 34.9811 23.9203 34.751 23.9509ZM12.45 15.9333H13.4167V16.4167C13.4167 16.6836 13.6331 16.9 13.9 16.9C14.1669 16.9 14.3833 16.6836 14.3833 16.4167V15.9333H16.3167V16.4167C16.3167 16.6836 16.5331 16.9 16.8 16.9C17.0669 16.9 17.2833 16.6836 17.2833 16.4167V15.9333H19.2167V16.4167C19.2167 16.6836 19.4331 16.9 19.7 16.9C19.9669 16.9 20.1833 16.6836 20.1833 16.4167V15.9333H22.1167V16.4167C22.1167 16.6836 22.3331 16.9 22.6 16.9C22.8669 16.9 23.0833 16.6836 23.0833 16.4167V15.9333H25.0167V16.4167C25.0167 16.6836 25.2331 16.9 25.5 16.9C25.7669 16.9 25.9833 16.6836 25.9833 16.4167V15.9333H27.9167V16.4167C27.9167 16.6836 28.1331 16.9 28.4 16.9C28.6669 16.9 28.8833 16.6836 28.8833 16.4167V15.9333H29.85C30.1169 15.9333 30.3333 16.1497 30.3333 16.4167V18.35H11.9667V16.4167C11.9667 16.1497 12.1831 15.9333 12.45 15.9333ZM11.9667 33.8167V19.3167H30.3333V22.336C30.2758 22.3633 30.2208 22.3957 30.169 22.4327C27.7117 24.2703 22.5768 28.7813 22.5956 34.3H12.45C12.1831 34.3 11.9667 34.0836 11.9667 33.8167ZM36.4006 40.1126C34.7196 41.5987 32.4728 42.2754 30.2507 41.9647C27.2517 41.5439 24.7696 39.4208 23.889 36.5233C22.0524 30.3062 28.674 24.7575 30.7495 23.2046C30.7792 23.1847 30.8173 23.1822 30.8495 23.1979C30.8817 23.2136 30.903 23.2453 30.9056 23.281C31.1912 24.9615 32.1265 26.0906 33.2333 26.0906C33.9163 26.0514 34.5339 25.6715 34.8767 25.0794C36.9792 27.4613 39.0333 31.3033 39.0333 34.3C39.0333 36.5261 38.0739 38.6443 36.4006 40.1126Z" fill="#F2994A"/>
<path d="M31.3 27.5333C27.5629 27.5333 24.5333 30.5629 24.5333 34.3C24.5333 38.0371 27.5629 41.0667 31.3 41.0667C35.0371 41.0667 38.0667 38.0371 38.0667 34.3C38.0529 30.5686 35.0314 27.5471 31.3 27.5333ZM34.6055 39.0594L34.3769 38.6626C34.2434 38.4313 33.9477 38.3519 33.7164 38.4854C33.4851 38.6189 33.4058 38.9146 33.5393 39.1459L33.7674 39.5413C33.1436 39.8374 32.4715 40.0187 31.7833 40.0763V39.6167C31.7833 39.3497 31.5669 39.1333 31.3 39.1333C31.0331 39.1333 30.8167 39.3497 30.8167 39.6167V40.0753C30.1284 40.0181 29.4561 39.8372 28.8321 39.5413L29.0602 39.1459C29.1937 38.9146 29.1144 38.6189 28.8831 38.4854C28.6518 38.3519 28.3561 38.4313 28.2226 38.6626L27.994 39.0594C27.4275 38.6645 26.9355 38.1725 26.5406 37.606L26.9369 37.3769C27.1662 37.2425 27.2439 36.9483 27.1111 36.7183C26.9782 36.4882 26.6846 36.4084 26.4536 36.5398L26.0587 36.7679C25.7627 36.1439 25.5814 35.4716 25.5237 34.7833H25.9833C26.2503 34.7833 26.4667 34.5669 26.4667 34.3C26.4667 34.0331 26.2503 33.8167 25.9833 33.8167H25.5242C25.5818 33.1294 25.7627 32.4581 26.0582 31.835L26.4531 32.0631C26.6028 32.1508 26.7879 32.1517 26.9383 32.0653C27.0887 31.9789 27.1813 31.8185 27.1809 31.6451C27.1805 31.4717 27.0872 31.3117 26.9365 31.226L26.5401 30.9969C26.9349 30.4303 27.4269 29.9382 27.9935 29.5435L28.2221 29.9403C28.3556 30.1716 28.6513 30.2509 28.8826 30.1175C29.1139 29.984 29.1932 29.6883 29.0598 29.457L28.8316 29.0616C29.4557 28.765 30.1281 28.5834 30.8167 28.5256V28.9833C30.8167 29.2503 31.0331 29.4667 31.3 29.4667C31.5669 29.4667 31.7833 29.2503 31.7833 28.9833V28.5246C32.4706 28.5822 33.1419 28.7632 33.765 29.0587L33.5369 29.4541C33.4034 29.6854 33.4827 29.9811 33.714 30.1146C33.9453 30.248 34.241 30.1687 34.3745 29.9374L34.6031 29.5406C35.1697 29.9353 35.6617 30.4274 36.0565 30.994L35.6601 31.2231C35.5094 31.3088 35.4161 31.4688 35.4157 31.6422C35.4153 31.8156 35.5079 31.976 35.6583 32.0624C35.8087 32.1488 35.9939 32.1479 36.1435 32.0602L36.5384 31.8321C36.835 32.456 37.0168 33.1283 37.0749 33.8167H36.6167C36.3497 33.8167 36.1333 34.0331 36.1333 34.3C36.1333 34.5669 36.3497 34.7833 36.6167 34.7833H37.0754C37.0178 35.4716 36.8367 36.1438 36.5408 36.7679L36.1459 36.5398C35.9963 36.452 35.8111 36.4512 35.6607 36.5376C35.5103 36.624 35.4177 36.7843 35.4181 36.9578C35.4185 37.1312 35.5118 37.2912 35.6626 37.3769L36.0589 37.606C35.664 38.1728 35.1718 38.6652 34.605 39.0603L34.6055 39.0594Z" fill="#F2994A"/>
<path d="M31.8524 34.1705L32.7224 31.5537C32.777 31.3897 32.7399 31.209 32.6251 31.0797C32.5103 30.9504 32.3353 30.8922 32.1659 30.927C31.9966 30.9617 31.8586 31.0842 31.8041 31.2482L30.8374 34.1482C30.7796 34.3219 30.8249 34.5133 30.9544 34.6427L32.4044 36.0927C32.5924 36.2823 32.8986 36.2836 33.0883 36.0956C33.2779 35.9075 33.2792 35.6013 33.0912 35.4117L31.8524 34.1705Z" fill="#F2994A"/>
<path d="M16.3166 20.2833H14.391C13.8571 20.2833 13.4243 20.7161 13.4243 21.25V22.7C13.4243 23.2339 13.8571 23.6667 14.391 23.6667H16.3166C16.8505 23.6667 17.2833 23.2339 17.2833 22.7V21.25C17.2833 20.7161 16.8505 20.2833 16.3166 20.2833ZM14.391 22.7V21.25H16.3166V22.7H14.391Z" fill="#F2994A"/>
<path d="M20.1833 23.6667H22.1089C22.6428 23.6667 23.0756 23.2339 23.0756 22.7V21.25C23.0756 20.7161 22.6428 20.2833 22.1089 20.2833H20.1833C19.6495 20.2833 19.2167 20.7161 19.2167 21.25V22.7C19.2167 23.2339 19.6495 23.6667 20.1833 23.6667ZM20.1833 21.25H22.1089V22.7H20.1833V21.25Z" fill="#F2994A"/>
<path d="M25.9757 23.6667H26.9501C27.217 23.6667 27.4334 23.4503 27.4334 23.1833C27.4334 22.9164 27.217 22.7 26.9501 22.7H25.9757V21.25H27.9167V21.7333C27.9167 22.0003 28.1331 22.2167 28.4001 22.2167C28.667 22.2167 28.8834 22.0003 28.8834 21.7333V21.25C28.8834 20.7161 28.4506 20.2833 27.9167 20.2833H25.9757C25.4418 20.2833 25.009 20.7161 25.009 21.25V22.7C25.009 23.2339 25.4418 23.6667 25.9757 23.6667Z" fill="#F2994A"/>
<path d="M16.3166 24.6334H14.391C13.8571 24.6334 13.4243 25.0662 13.4243 25.6V27.05C13.4243 27.5839 13.8571 28.0167 14.391 28.0167H16.3166C16.8505 28.0167 17.2833 27.5839 17.2833 27.05V25.6C17.2833 25.0662 16.8505 24.6334 16.3166 24.6334ZM14.391 27.05V25.6H16.3166V27.05H14.391Z" fill="#F2994A"/>
<path d="M20.1833 28.0167H22.1089C22.6428 28.0167 23.0756 27.5839 23.0756 27.05V25.6C23.0756 25.0662 22.6428 24.6334 22.1089 24.6334H20.1833C19.6495 24.6334 19.2167 25.0662 19.2167 25.6V27.05C19.2167 27.5839 19.6495 28.0167 20.1833 28.0167ZM20.1833 25.6H22.1089V27.05H20.1833V25.6Z" fill="#F2994A"/>
<path d="M16.3166 28.9833H14.391C13.8571 28.9833 13.4243 29.4161 13.4243 29.95V31.4C13.4243 31.9339 13.8571 32.3667 14.391 32.3667H16.3166C16.8505 32.3667 17.2833 31.9339 17.2833 31.4V29.95C17.2833 29.4161 16.8505 28.9833 16.3166 28.9833ZM14.391 31.4V29.95H16.3166V31.4H14.391Z" fill="#F2994A"/>
<path d="M22.1089 29.95C22.3759 29.95 22.5923 29.7336 22.5923 29.4667C22.5923 29.1997 22.3759 28.9833 22.1089 28.9833H20.1833C19.6495 28.9833 19.2167 29.4161 19.2167 29.95V31.4C19.2167 31.9339 19.6495 32.3667 20.1833 32.3667H21.6333C21.9003 32.3667 22.1167 32.1503 22.1167 31.8833C22.1167 31.6164 21.9003 31.4 21.6333 31.4H20.1833V29.95H22.1089Z" fill="#F2994A"/>
</g>
<circle opacity="0.2" cx="26" cy="26" r="26" fill="#F2994A"/>
<defs>
<clipPath id="clip0_2819_6615">
<rect width="29" height="29" fill="white" transform="translate(11 14)"/>
</clipPath>
</defs>
</svg>
