<svg width="29" height="29" viewBox="0 0 29 29" fill="none" xmlns="http://www.w3.org/2000/svg">
    <path d="M23.751 9.95087C23.5189 9.98073 23.3155 10.1208 23.2048 10.3269C22.9313 10.8325 22.5765 11.1225 22.2333 11.1225C21.634 11.1225 21.0559 10.2795 20.8578 9.11373C20.7993 8.78727 20.5935 8.50604 20.3 8.35152V2.41667C20.3 1.61585 19.6508 0.966667 18.85 0.966667H17.8833V0.483333C17.8833 0.216396 17.6669 0 17.4 0C17.1331 0 16.9167 0.216396 16.9167 0.483333V0.966667H14.9833V0.483333C14.9833 0.216396 14.7669 0 14.5 0C14.2331 0 14.0167 0.216396 14.0167 0.483333V0.966667H12.0833V0.483333C12.0833 0.216396 11.8669 0 11.6 0C11.3331 0 11.1167 0.216396 11.1167 0.483333V0.966667H9.18333V0.483333C9.18333 0.216396 8.96694 0 8.7 0C8.43306 0 8.21667 0.216396 8.21667 0.483333V0.966667H6.28333V0.483333C6.28333 0.216396 6.06694 0 5.8 0C5.53306 0 5.31667 0.216396 5.31667 0.483333V0.966667H3.38333V0.483333C3.38333 0.216396 3.16694 0 2.9 0C2.63306 0 2.41667 0.216396 2.41667 0.483333V0.966667H1.45C0.649187 0.966667 0 1.61585 0 2.41667V19.8167C0 20.6175 0.649187 21.2667 1.45 21.2667H11.6556C11.7132 21.7842 11.8158 22.2957 11.962 22.7954C12.9282 26.0748 15.7361 28.4768 19.1255 28.9236C19.5066 28.9738 19.8905 28.9993 20.2749 29C22.5866 29.0067 24.8059 28.093 26.4429 26.4607C28.08 24.8284 29 22.6117 29 20.3C29 16.95 26.6694 12.6711 24.3677 10.1761C24.2115 10.0045 23.9811 9.92033 23.751 9.95087ZM1.45 1.93333H2.41667V2.41667C2.41667 2.6836 2.63306 2.9 2.9 2.9C3.16694 2.9 3.38333 2.6836 3.38333 2.41667V1.93333H5.31667V2.41667C5.31667 2.6836 5.53306 2.9 5.8 2.9C6.06694 2.9 6.28333 2.6836 6.28333 2.41667V1.93333H8.21667V2.41667C8.21667 2.6836 8.43306 2.9 8.7 2.9C8.96694 2.9 9.18333 2.6836 9.18333 2.41667V1.93333H11.1167V2.41667C11.1167 2.6836 11.3331 2.9 11.6 2.9C11.8669 2.9 12.0833 2.6836 12.0833 2.41667V1.93333H14.0167V2.41667C14.0167 2.6836 14.2331 2.9 14.5 2.9C14.7669 2.9 14.9833 2.6836 14.9833 2.41667V1.93333H16.9167V2.41667C16.9167 2.6836 17.1331 2.9 17.4 2.9C17.6669 2.9 17.8833 2.6836 17.8833 2.41667V1.93333H18.85C19.1169 1.93333 19.3333 2.14973 19.3333 2.41667V4.35H0.966667V2.41667C0.966667 2.14973 1.18306 1.93333 1.45 1.93333ZM0.966667 19.8167V5.31667H19.3333V8.33605C19.2758 8.36331 19.2208 8.39566 19.169 8.43272C16.7117 10.2703 11.5768 14.7813 11.5956 20.3H1.45C1.18306 20.3 0.966667 20.0836 0.966667 19.8167ZM25.4006 26.1126C23.7196 27.5987 21.4728 28.2754 19.2507 27.9647C16.2517 27.5439 13.7696 25.4208 12.889 22.5233C11.0524 16.3062 17.674 10.7575 19.7495 9.2046C19.7792 9.18471 19.8173 9.18216 19.8495 9.19789C19.8817 9.21362 19.903 9.24526 19.9056 9.28097C20.1912 10.9615 21.1265 12.0906 22.2333 12.0906C22.9163 12.0514 23.5339 11.6715 23.8767 11.0794C25.9792 13.4613 28.0333 17.3033 28.0333 20.3C28.0333 22.5261 27.0739 24.6443 25.4006 26.1126Z"
          fill="#F2994A"/>
</svg>
