<svg width="29" height="29" viewBox="0 0 29 29" fill="none" xmlns="http://www.w3.org/2000/svg">
    <g clip-path="url(#clip0)">
        <path d="M23.751 9.95087C23.5189 9.98073 23.3155 10.1208 23.2048 10.3269C22.9313 10.8325 22.5765 11.1225 22.2333 11.1225C21.634 11.1225 21.0559 10.2795 20.8578 9.11373C20.7993 8.78727 20.5935 8.50604 20.3 8.35152V2.41667C20.3 1.61585 19.6508 0.966667 18.85 0.966667H17.8833V0.483333C17.8833 0.216396 17.6669 0 17.4 0C17.1331 0 16.9167 0.216396 16.9167 0.483333V0.966667H14.9833V0.483333C14.9833 0.216396 14.7669 0 14.5 0C14.2331 0 14.0167 0.216396 14.0167 0.483333V0.966667H12.0833V0.483333C12.0833 0.216396 11.8669 0 11.6 0C11.3331 0 11.1167 0.216396 11.1167 0.483333V0.966667H9.18333V0.483333C9.18333 0.216396 8.96694 0 8.7 0C8.43306 0 8.21667 0.216396 8.21667 0.483333V0.966667H6.28333V0.483333C6.28333 0.216396 6.06694 0 5.8 0C5.53306 0 5.31667 0.216396 5.31667 0.483333V0.966667H3.38333V0.483333C3.38333 0.216396 3.16694 0 2.9 0C2.63306 0 2.41667 0.216396 2.41667 0.483333V0.966667H1.45C0.649187 0.966667 0 1.61585 0 2.41667V19.8167C0 20.6175 0.649187 21.2667 1.45 21.2667H11.6556C11.7132 21.7842 11.8158 22.2957 11.962 22.7954C12.9282 26.0748 15.7361 28.4768 19.1255 28.9236C19.5066 28.9738 19.8905 28.9993 20.2749 29C22.5866 29.0067 24.8059 28.093 26.4429 26.4607C28.08 24.8284 29 22.6117 29 20.3C29 16.95 26.6694 12.6711 24.3677 10.1761C24.2115 10.0045 23.9811 9.92033 23.751 9.95087ZM1.45 1.93333H2.41667V2.41667C2.41667 2.6836 2.63306 2.9 2.9 2.9C3.16694 2.9 3.38333 2.6836 3.38333 2.41667V1.93333H5.31667V2.41667C5.31667 2.6836 5.53306 2.9 5.8 2.9C6.06694 2.9 6.28333 2.6836 6.28333 2.41667V1.93333H8.21667V2.41667C8.21667 2.6836 8.43306 2.9 8.7 2.9C8.96694 2.9 9.18333 2.6836 9.18333 2.41667V1.93333H11.1167V2.41667C11.1167 2.6836 11.3331 2.9 11.6 2.9C11.8669 2.9 12.0833 2.6836 12.0833 2.41667V1.93333H14.0167V2.41667C14.0167 2.6836 14.2331 2.9 14.5 2.9C14.7669 2.9 14.9833 2.6836 14.9833 2.41667V1.93333H16.9167V2.41667C16.9167 2.6836 17.1331 2.9 17.4 2.9C17.6669 2.9 17.8833 2.6836 17.8833 2.41667V1.93333H18.85C19.1169 1.93333 19.3333 2.14973 19.3333 2.41667V4.35H0.966667V2.41667C0.966667 2.14973 1.18306 1.93333 1.45 1.93333ZM0.966667 19.8167V5.31667H19.3333V8.33605C19.2758 8.36331 19.2208 8.39566 19.169 8.43272C16.7117 10.2703 11.5768 14.7813 11.5956 20.3H1.45C1.18306 20.3 0.966667 20.0836 0.966667 19.8167ZM25.4006 26.1126C23.7196 27.5987 21.4728 28.2754 19.2507 27.9647C16.2517 27.5439 13.7696 25.4208 12.889 22.5233C11.0524 16.3062 17.674 10.7575 19.7495 9.2046C19.7792 9.18471 19.8173 9.18216 19.8495 9.19789C19.8817 9.21362 19.903 9.24526 19.9056 9.28097C20.1912 10.9615 21.1265 12.0906 22.2333 12.0906C22.9163 12.0514 23.5339 11.6715 23.8767 11.0794C25.9792 13.4613 28.0333 17.3033 28.0333 20.3C28.0333 22.5261 27.0739 24.6443 25.4006 26.1126Z"
              fill="#F2994A"/>
        <path d="M20.3 13.5333C16.5629 13.5333 13.5333 16.5629 13.5333 20.3C13.5333 24.0371 16.5629 27.0667 20.3 27.0667C24.0371 27.0667 27.0667 24.0371 27.0667 20.3C27.0529 16.5686 24.0314 13.5471 20.3 13.5333ZM23.6055 25.0594L23.3769 24.6626C23.2434 24.4313 22.9477 24.3519 22.7164 24.4854C22.4851 24.6189 22.4058 24.9146 22.5393 25.1459L22.7674 25.5413C22.1436 25.8374 21.4715 26.0187 20.7833 26.0763V25.6167C20.7833 25.3497 20.5669 25.1333 20.3 25.1333C20.0331 25.1333 19.8167 25.3497 19.8167 25.6167V26.0753C19.1284 26.0181 18.4561 25.8372 17.8321 25.5413L18.0602 25.1459C18.1937 24.9146 18.1144 24.6189 17.8831 24.4854C17.6518 24.3519 17.3561 24.4313 17.2226 24.6626L16.994 25.0594C16.4275 24.6645 15.9355 24.1725 15.5406 23.606L15.9369 23.3769C16.1662 23.2425 16.2439 22.9483 16.1111 22.7183C15.9782 22.4882 15.6846 22.4084 15.4536 22.5398L15.0587 22.7679C14.7627 22.1439 14.5814 21.4716 14.5237 20.7833H14.9833C15.2503 20.7833 15.4667 20.5669 15.4667 20.3C15.4667 20.0331 15.2503 19.8167 14.9833 19.8167H14.5242C14.5818 19.1294 14.7627 18.4581 15.0582 17.835L15.4531 18.0631C15.6028 18.1508 15.7879 18.1517 15.9383 18.0653C16.0887 17.9789 16.1813 17.8185 16.1809 17.6451C16.1805 17.4717 16.0872 17.3117 15.9365 17.226L15.5401 16.9969C15.9349 16.4303 16.4269 15.9382 16.9935 15.5435L17.2221 15.9403C17.3556 16.1716 17.6513 16.2509 17.8826 16.1175C18.1139 15.984 18.1932 15.6883 18.0598 15.457L17.8316 15.0616C18.4557 14.765 19.1281 14.5834 19.8167 14.5256V14.9833C19.8167 15.2503 20.0331 15.4667 20.3 15.4667C20.5669 15.4667 20.7833 15.2503 20.7833 14.9833V14.5246C21.4706 14.5822 22.1419 14.7632 22.765 15.0587L22.5369 15.4541C22.4034 15.6854 22.4827 15.9811 22.714 16.1146C22.9453 16.248 23.241 16.1687 23.3745 15.9374L23.6031 15.5406C24.1697 15.9353 24.6617 16.4274 25.0565 16.994L24.6601 17.2231C24.5094 17.3088 24.4161 17.4688 24.4157 17.6422C24.4153 17.8156 24.5079 17.976 24.6583 18.0624C24.8087 18.1488 24.9939 18.1479 25.1435 18.0602L25.5384 17.8321C25.835 18.456 26.0168 19.1283 26.0749 19.8167H25.6167C25.3497 19.8167 25.1333 20.0331 25.1333 20.3C25.1333 20.5669 25.3497 20.7833 25.6167 20.7833H26.0754C26.0178 21.4716 25.8367 22.1438 25.5408 22.7679L25.1459 22.5398C24.9963 22.452 24.8111 22.4512 24.6607 22.5376C24.5103 22.624 24.4177 22.7843 24.4181 22.9578C24.4185 23.1312 24.5118 23.2912 24.6626 23.3769L25.0589 23.606C24.664 24.1728 24.1718 24.6652 23.605 25.0603L23.6055 25.0594Z"
              fill="#F2994A"/>
        <path d="M20.8524 20.1705L21.7224 17.5537C21.777 17.3897 21.7399 17.209 21.6251 17.0797C21.5103 16.9504 21.3353 16.8922 21.1659 16.927C20.9966 16.9617 20.8586 17.0842 20.8041 17.2482L19.8374 20.1482C19.7796 20.3219 19.8249 20.5133 19.9544 20.6427L21.4044 22.0927C21.5924 22.2823 21.8986 22.2836 22.0883 22.0956C22.2779 21.9075 22.2792 21.6013 22.0912 21.4117L20.8524 20.1705Z"
              fill="#F2994A"/>
        <path d="M5.31661 6.28333H3.39101C2.85713 6.28333 2.42434 6.71612 2.42434 7.24999V8.69999C2.42434 9.23387 2.85713 9.66666 3.39101 9.66666H5.31661C5.85048 9.66666 6.28327 9.23387 6.28327 8.69999V7.24999C6.28327 6.71612 5.85048 6.28333 5.31661 6.28333ZM3.39101 8.69999V7.24999H5.31661V8.69999H3.39101Z"
              fill="#F2994A"/>
        <path d="M9.18333 9.66666H11.1089C11.6428 9.66666 12.0756 9.23387 12.0756 8.69999V7.24999C12.0756 6.71612 11.6428 6.28333 11.1089 6.28333H9.18333C8.64946 6.28333 8.21667 6.71612 8.21667 7.24999V8.69999C8.21667 9.23387 8.64946 9.66666 9.18333 9.66666ZM9.18333 7.24999H11.1089V8.69999H9.18333V7.24999Z"
              fill="#F2994A"/>
        <path d="M14.9757 9.66666H15.9501C16.217 9.66666 16.4334 9.45026 16.4334 9.18333C16.4334 8.91639 16.217 8.69999 15.9501 8.69999H14.9757V7.24999H16.9167V7.73333C16.9167 8.00026 17.1331 8.21666 17.4001 8.21666C17.667 8.21666 17.8834 8.00026 17.8834 7.73333V7.24999C17.8834 6.71612 17.4506 6.28333 16.9167 6.28333H14.9757C14.4418 6.28333 14.009 6.71612 14.009 7.24999V8.69999C14.009 9.23387 14.4418 9.66666 14.9757 9.66666Z"
              fill="#F2994A"/>
        <path d="M5.31661 10.6334H3.39101C2.85713 10.6334 2.42434 11.0662 2.42434 11.6V13.05C2.42434 13.5839 2.85713 14.0167 3.39101 14.0167H5.31661C5.85048 14.0167 6.28327 13.5839 6.28327 13.05V11.6C6.28327 11.0662 5.85048 10.6334 5.31661 10.6334ZM3.39101 13.05V11.6H5.31661V13.05H3.39101Z"
              fill="#F2994A"/>
        <path d="M9.18333 14.0167H11.1089C11.6428 14.0167 12.0756 13.5839 12.0756 13.05V11.6C12.0756 11.0662 11.6428 10.6334 11.1089 10.6334H9.18333C8.64946 10.6334 8.21667 11.0662 8.21667 11.6V13.05C8.21667 13.5839 8.64946 14.0167 9.18333 14.0167ZM9.18333 11.6H11.1089V13.05H9.18333V11.6Z"
              fill="#F2994A"/>
        <path d="M5.31661 14.9833H3.39101C2.85713 14.9833 2.42434 15.4161 2.42434 15.95V17.4C2.42434 17.9339 2.85713 18.3667 3.39101 18.3667H5.31661C5.85048 18.3667 6.28327 17.9339 6.28327 17.4V15.95C6.28327 15.4161 5.85048 14.9833 5.31661 14.9833ZM3.39101 17.4V15.95H5.31661V17.4H3.39101Z"
              fill="#F2994A"/>
        <path d="M11.1089 15.95C11.3759 15.95 11.5923 15.7336 11.5923 15.4667C11.5923 15.1997 11.3759 14.9833 11.1089 14.9833H9.18333C8.64946 14.9833 8.21667 15.4161 8.21667 15.95V17.4C8.21667 17.9339 8.64946 18.3667 9.18333 18.3667H10.6333C10.9003 18.3667 11.1167 18.1503 11.1167 17.8833C11.1167 17.6164 10.9003 17.4 10.6333 17.4H9.18333V15.95H11.1089Z"
              fill="#F2994A"/>
    </g>
    <defs>
        <clipPath id="clip0">
            <rect width="29" height="29" fill="white"/>
        </clipPath>
    </defs>
</svg>
