<svg width="20" height="20" viewBox="0 0 20 20" fill="none" xmlns="http://www.w3.org/2000/svg">
<path d="M5.83317 8.95833H4.1665C2.14984 8.95833 1.0415 7.85 1.0415 5.83333V4.16667C1.0415 2.15 2.14984 1.04167 4.1665 1.04167H5.83317C7.84984 1.04167 8.95817 2.15 8.95817 4.16667V5.83333C8.95817 7.85 7.84984 8.95833 5.83317 8.95833ZM4.1665 2.29167C2.84984 2.29167 2.2915 2.85 2.2915 4.16667V5.83333C2.2915 7.15 2.84984 7.70833 4.1665 7.70833H5.83317C7.14984 7.70833 7.70817 7.15 7.70817 5.83333V4.16667C7.70817 2.85 7.14984 2.29167 5.83317 2.29167H4.1665Z" fill="#425393"/>
<path d="M15.8332 8.95833H14.1665C12.1498 8.95833 11.0415 7.85 11.0415 5.83333V4.16667C11.0415 2.15 12.1498 1.04167 14.1665 1.04167H15.8332C17.8498 1.04167 18.9582 2.15 18.9582 4.16667V5.83333C18.9582 7.85 17.8498 8.95833 15.8332 8.95833ZM14.1665 2.29167C12.8498 2.29167 12.2915 2.85 12.2915 4.16667V5.83333C12.2915 7.15 12.8498 7.70833 14.1665 7.70833H15.8332C17.1498 7.70833 17.7082 7.15 17.7082 5.83333V4.16667C17.7082 2.85 17.1498 2.29167 15.8332 2.29167H14.1665Z" fill="#425393"/>
<path d="M15.8332 18.9583H14.1665C12.1498 18.9583 11.0415 17.85 11.0415 15.8333V14.1667C11.0415 12.15 12.1498 11.0417 14.1665 11.0417H15.8332C17.8498 11.0417 18.9582 12.15 18.9582 14.1667V15.8333C18.9582 17.85 17.8498 18.9583 15.8332 18.9583ZM14.1665 12.2917C12.8498 12.2917 12.2915 12.85 12.2915 14.1667V15.8333C12.2915 17.15 12.8498 17.7083 14.1665 17.7083H15.8332C17.1498 17.7083 17.7082 17.15 17.7082 15.8333V14.1667C17.7082 12.85 17.1498 12.2917 15.8332 12.2917H14.1665Z" fill="#425393"/>
<path d="M5.83317 18.9583H4.1665C2.14984 18.9583 1.0415 17.85 1.0415 15.8333V14.1667C1.0415 12.15 2.14984 11.0417 4.1665 11.0417H5.83317C7.84984 11.0417 8.95817 12.15 8.95817 14.1667V15.8333C8.95817 17.85 7.84984 18.9583 5.83317 18.9583ZM4.1665 12.2917C2.84984 12.2917 2.2915 12.85 2.2915 14.1667V15.8333C2.2915 17.15 2.84984 17.7083 4.1665 17.7083H5.83317C7.14984 17.7083 7.70817 17.15 7.70817 15.8333V14.1667C7.70817 12.85 7.14984 12.2917 5.83317 12.2917H4.1665Z" fill="#425393"/>
</svg>
