<svg width="24" height="24" viewBox="0 0 24 24" fill="none" xmlns="http://www.w3.org/2000/svg">
    <g clip-path="url(#clip0)">
        <path d="M11.9981 4.00381C8.64557 4.00381 5.91815 6.73128 5.91815 10.0838C5.91815 13.4362 8.64562 16.1637 11.9981 16.1637C15.3506 16.1637 18.078 13.4362 18.078 10.0838C18.078 6.73128 15.3505 4.00381 11.9981 4.00381ZM9.20111 7.3133H10.6075V8.71982H9.20111V7.3133ZM10.3824 13.4914L9.25689 12.648L13.6183 6.82739L14.7438 7.67077L10.3824 13.4914ZM14.8843 12.8543H13.4779V11.4478H14.8843V12.8543Z"
              fill="#162A75"/>
        <path d="M19.1965 2.98093C17.2743 1.05864 14.7184 -1.52588e-05 11.9999 -1.52588e-05C9.2814 -1.52588e-05 6.72557 1.05864 4.80328 2.98093C2.88098 4.90323 1.82233 7.45901 1.82233 10.1776C1.82233 11.791 2.35269 13.5176 3.39859 15.3095C4.21333 16.7054 5.34409 18.1487 6.75937 19.5995C9.14972 22.0498 11.505 23.6631 11.6041 23.7305L11.9999 24L12.3957 23.7305C12.4948 23.6631 14.8501 22.0497 17.2405 19.5995C18.6557 18.1488 19.7865 16.7054 20.6012 15.3095C21.6472 13.5176 22.1775 11.791 22.1775 10.1776C22.1775 7.45901 21.1188 4.90323 19.1965 2.98093ZM11.9981 17.5701C7.87011 17.5701 4.51177 14.2117 4.51177 10.0838C4.51177 5.95579 7.87016 2.59745 11.9981 2.59745C16.1261 2.59745 19.4844 5.95584 19.4844 10.0838C19.4844 14.2117 16.1261 17.5701 11.9981 17.5701Z"
              fill="#162A75"/>
    </g>
    <defs>
        <clipPath id="clip0">
            <rect width="24" height="24" fill="white"/>
        </clipPath>
    </defs>
</svg>
