<svg width="16" height="16" viewBox="0 0 16 16" fill="none" xmlns="http://www.w3.org/2000/svg">
<path d="M11.3284 1.99955C11.5035 1.82445 11.7114 1.68556 11.9402 1.5908C12.169 1.49604 12.4142 1.44727 12.6618 1.44727C12.9094 1.44727 13.1546 1.49604 13.3834 1.5908C13.6121 1.68556 13.82 1.82445 13.9951 1.99955C14.1702 2.17465 14.3091 2.38252 14.4039 2.61129C14.4986 2.84006 14.5474 3.08526 14.5474 3.33289C14.5474 3.58051 14.4986 3.82571 14.4039 4.05448C14.3091 4.28326 14.1702 4.49112 13.9951 4.66622L4.9951 13.6662L1.32843 14.6662L2.32843 10.9996L11.3284 1.99955Z" stroke="#5087E1" stroke-width="1.53153" stroke-linecap="round" stroke-linejoin="round"/>
</svg>
