<svg width="18" height="17" viewBox="0 0 18 17" fill="none" xmlns="http://www.w3.org/2000/svg">
    <rect x="0.5" y="0.5" width="17" height="16" rx="1.5" stroke="#162A75"/>
    <path d="M11.3333 7.41699C12.3016 7.41699 13.0775 6.63533 13.0775 5.66699C13.0775 4.69866 12.3016 3.91699 11.3333 3.91699C10.365 3.91699 9.58331 4.69866 9.58331 5.66699C9.58331 6.63533 10.365 7.41699 11.3333 7.41699ZM6.66665 7.41699C7.63498 7.41699 8.41081 6.63533 8.41081 5.66699C8.41081 4.69866 7.63498 3.91699 6.66665 3.91699C5.69831 3.91699 4.91665 4.69866 4.91665 5.66699C4.91665 6.63533 5.69831 7.41699 6.66665 7.41699ZM6.66665 8.58366C5.30748 8.58366 2.58331 9.26616 2.58331 10.6253V12.0837H10.75V10.6253C10.75 9.26616 8.02581 8.58366 6.66665 8.58366ZM11.3333 8.58366C11.1641 8.58366 10.9716 8.59533 10.7675 8.61283C11.4441 9.10283 11.9166 9.76199 11.9166 10.6253V12.0837H15.4166V10.6253C15.4166 9.26616 12.6925 8.58366 11.3333 8.58366Z"
          fill="#162A75"/>
</svg>
