<svg width="20" height="20" viewBox="0 0 20 20" fill="none" xmlns="http://www.w3.org/2000/svg">
<path d="M6.6665 18.5999C6.43317 18.5999 6.19149 18.5416 5.97482 18.4249C5.49982 18.1749 5.20817 17.6749 5.20817 17.1416V15.9583C2.6915 15.7 1.0415 13.8499 1.0415 11.1999V6.19996C1.0415 3.33329 2.9665 1.40829 5.83317 1.40829H14.1665C17.0332 1.40829 18.9582 3.33329 18.9582 6.19996V11.1999C18.9582 14.0666 17.0332 15.9916 14.1665 15.9916H11.0248L7.47481 18.3583C7.23315 18.5166 6.94984 18.5999 6.6665 18.5999ZM5.83317 2.64995C3.68317 2.64995 2.2915 4.04162 2.2915 6.19162V11.1917C2.2915 13.3417 3.68317 14.7333 5.83317 14.7333C6.17484 14.7333 6.45817 15.0167 6.45817 15.3583V17.1333C6.45817 17.2417 6.52484 17.2916 6.56651 17.3167C6.60817 17.3417 6.69152 17.3666 6.78318 17.3083L10.4915 14.8417C10.5915 14.775 10.7165 14.7333 10.8415 14.7333H14.1748C16.3248 14.7333 17.7165 13.3417 17.7165 11.1917V6.19162C17.7165 4.04162 16.3248 2.64995 14.1748 2.64995H5.83317Z" fill="#718096"/>
<path d="M10 10.0916C9.65834 10.0916 9.37501 9.80822 9.37501 9.46655V9.29158C9.37501 8.32492 10.0833 7.84991 10.35 7.66657C10.6583 7.45824 10.7583 7.31658 10.7583 7.09991C10.7583 6.68325 10.4167 6.34155 10 6.34155C9.58334 6.34155 9.2417 6.68325 9.2417 7.09991C9.2417 7.44158 8.95837 7.72491 8.6167 7.72491C8.27503 7.72491 7.9917 7.44158 7.9917 7.09991C7.9917 5.99158 8.89168 5.09155 10 5.09155C11.1083 5.09155 12.0083 5.99158 12.0083 7.09991C12.0083 8.04991 11.3084 8.5249 11.05 8.6999C10.725 8.91657 10.625 9.05825 10.625 9.29158V9.46655C10.625 9.81655 10.3417 10.0916 10 10.0916Z" fill="#718096"/>
<path d="M10 12.1667C9.65 12.1667 9.375 11.8834 9.375 11.5417C9.375 11.2001 9.65833 10.9167 10 10.9167C10.3417 10.9167 10.625 11.2001 10.625 11.5417C10.625 11.8834 10.35 12.1667 10 12.1667Z" fill="#718096"/>
</svg>
