<svg width="14" height="14" viewBox="0 0 14 14" fill="none" xmlns="http://www.w3.org/2000/svg">
    <path d="M5.86919 4.68393L6.99987 2.05838L8.13055 4.68393L8.66632 4.45321L8.13055 4.68393C8.25723 4.97808 8.53449 5.17953 8.85339 5.2091L11.6998 5.4731L9.55219 7.35979C9.31158 7.57116 9.20567 7.8971 9.27609 8.20954L9.84515 8.08128L9.27609 8.20954L9.90461 10.9983L7.44661 9.53873C7.17123 9.37521 6.82851 9.37521 6.55313 9.53873L4.09513 10.9983L4.72365 8.20954C4.79407 7.8971 4.68816 7.57116 4.44755 7.35979L2.2999 5.4731L5.14635 5.2091C5.46525 5.17953 5.74251 4.97808 5.86919 4.68393Z"
          fill="#162A75" stroke="#162A75" stroke-width="1.16667"/>
</svg>
