<svg width="85" height="13" viewBox="0 0 85 13" fill="none" xmlns="http://www.w3.org/2000/svg">
    <path d="M6.5 0L7.95934 4.49139H12.6819L8.86126 7.26722L10.3206 11.7586L6.5 8.98278L2.6794 11.7586L4.13874 7.26722L0.318133 4.49139H5.04066L6.5 0Z"
          fill="#F2C94C"/>
    <path d="M24.5 0L25.9593 4.49139H30.6819L26.8613 7.26722L28.3206 11.7586L24.5 8.98278L20.6794 11.7586L22.1387 7.26722L18.3181 4.49139H23.0407L24.5 0Z"
          fill="#F2C94C"/>
    <path d="M42.5 0L43.9593 4.49139H48.6819L44.8613 7.26722L46.3206 11.7586L42.5 8.98278L38.6794 11.7586L40.1387 7.26722L36.3181 4.49139H41.0407L42.5 0Z"
          fill="#F2C94C"/>
    <path d="M60.5 0L61.9593 4.49139H66.6819L62.8613 7.26722L64.3206 11.7586L60.5 8.98278L56.6794 11.7586L58.1387 7.26722L54.3181 4.49139H59.0407L60.5 0Z"
          fill="#CBD1EA"/>
    <path d="M78.5 0L79.9593 4.49139H84.6819L80.8613 7.26722L82.3206 11.7586L78.5 8.98278L74.6794 11.7586L76.1387 7.26722L72.3181 4.49139H77.0407L78.5 0Z"
          fill="#CBD1EA"/>
</svg>
