<svg width="43" height="43" viewBox="0 0 43 43" fill="none" xmlns="http://www.w3.org/2000/svg">
<circle cx="21.5" cy="21.5" r="21.5" fill="#DAE2FF"/>
<g clip-path="url(#clip0_2710_6614)">
<path d="M20.9981 14.0038C17.6456 14.0038 14.9182 16.7313 14.9182 20.0838C14.9182 23.4362 17.6456 26.1637 20.9981 26.1637C24.3506 26.1637 27.078 23.4362 27.078 20.0838C27.078 16.7313 24.3505 14.0038 20.9981 14.0038ZM18.2011 17.3133H19.6075V18.7198H18.2011V17.3133ZM19.3824 23.4914L18.2569 22.648L22.6183 16.8274L23.7438 17.6708L19.3824 23.4914ZM23.8843 22.8543H22.4779V21.4478H23.8843V22.8543Z" fill="#162A75"/>
<path d="M28.1965 12.9809C26.2743 11.0586 23.7184 9.99998 20.9999 9.99998C18.2814 9.99998 15.7256 11.0586 13.8033 12.9809C11.881 14.9032 10.8223 17.459 10.8223 20.1776C10.8223 21.791 11.3527 23.5176 12.3986 25.3095C13.2133 26.7054 14.3441 28.1487 15.7594 29.5995C18.1497 32.0498 20.505 33.6631 20.6041 33.7305L20.9999 34L21.3957 33.7305C21.4948 33.6631 23.8501 32.0497 26.2405 29.5995C27.6557 28.1488 28.7865 26.7054 29.6012 25.3095C30.6472 23.5176 31.1775 21.791 31.1775 20.1776C31.1775 17.459 30.1188 14.9032 28.1965 12.9809ZM20.9981 27.5701C16.8701 27.5701 13.5118 24.2117 13.5118 20.0838C13.5118 15.9558 16.8702 12.5975 20.9981 12.5975C25.1261 12.5975 28.4844 15.9558 28.4844 20.0838C28.4844 24.2117 25.1261 27.5701 20.9981 27.5701Z" fill="#162A75"/>
</g>
<defs>
<clipPath id="clip0_2710_6614">
<rect width="24" height="24" fill="white" transform="translate(9 10)"/>
</clipPath>
</defs>
</svg>
