<svg width="38" height="34" viewBox="0 0 38 34" fill="none" xmlns="http://www.w3.org/2000/svg">
    <path d="M10.0938 0.226562C12.1558 0.226562 14.0463 0.879984 15.7126 2.16872C17.3102 3.40424 18.3738 4.9779 19 6.1222C19.6262 4.97782 20.6898 3.40424 22.2874 2.16872C23.9537 0.879984 25.8442 0.226562 27.9062 0.226562C33.6606 0.226562 38 4.93329 38 11.1749C38 17.9179 32.5863 22.5314 24.3906 29.5157C22.9988 30.7017 21.4213 32.0461 19.7817 33.48C19.5655 33.6692 19.288 33.7734 19 33.7734C18.712 33.7734 18.4345 33.6692 18.2183 33.48C16.5785 32.046 15.0011 30.7017 13.6085 29.5149C5.41374 22.5315 0 17.9179 0 11.1749C0 4.93329 4.33942 0.226562 10.0938 0.226562Z"
          fill="white"/>
</svg>
