<svg width="24" height="24" viewBox="0 0 24 24" fill="none" xmlns="http://www.w3.org/2000/svg">
    <path d="M21.44 11.0509L12.25 20.2409C11.1242 21.3667 9.59718 21.9992 8.005 21.9992C6.41282 21.9992 4.88584 21.3667 3.76 20.2409C2.63416 19.1151 2.00166 17.5881 2.00166 15.9959C2.00166 14.4037 2.63416 12.8767 3.76 11.7509L12.95 2.5609C13.7006 1.81033 14.7185 1.38867 15.78 1.38867C16.8415 1.38867 17.8594 1.81033 18.61 2.5609C19.3606 3.31146 19.7822 4.32944 19.7822 5.3909C19.7822 6.45235 19.3606 7.47033 18.61 8.2209L9.41 17.4109C9.03472 17.7862 8.52573 17.997 7.995 17.997C7.46427 17.997 6.95528 17.7862 6.58 17.4109C6.20472 17.0356 5.99389 16.5266 5.99389 15.9959C5.99389 15.4652 6.20472 14.9562 6.58 14.5809L15.07 6.1009"
          stroke="black" stroke-linecap="round" stroke-linejoin="round"/>
</svg>
