<svg width="29" height="29" viewBox="0 0 29 29" fill="none" xmlns="http://www.w3.org/2000/svg">
    <g clip-path="url(#clip0)">
        <path d="M18.1087 5.0933C19.5136 5.18721 20.7286 4.12451 20.8225 2.71966C20.9164 1.3148 19.8537 0.0997456 18.4488 0.0058355C17.044 -0.0880746 15.829 0.974617 15.7351 2.37947C15.6411 3.78433 16.7038 4.99933 18.1087 5.0933Z"
              fill="#162A75"/>
        <path d="M10.2319 15.8652C10.0829 15.8029 9.94643 15.7233 9.82369 15.6298L8.1691 19.2178L6.9302 18.6464C6.44802 18.4241 5.87691 18.6347 5.6546 19.1169L2.3844 26.2083C2.16208 26.6905 2.37267 27.2615 2.85485 27.4839L3.27643 27.6783C3.2058 27.744 3.14633 27.8241 3.10339 27.9171C2.9269 28.2999 3.0941 28.7533 3.47682 28.9298C3.8596 29.1063 4.31295 28.9391 4.48944 28.5563C4.53232 28.4633 4.55458 28.3661 4.55872 28.2697L4.98029 28.4641C5.46247 28.6864 6.03358 28.4758 6.2559 27.9937L9.5261 20.9022C9.72525 20.4703 9.57628 19.9679 9.19668 19.7078L10.9029 16.0078C10.6786 16.0027 10.4514 15.957 10.2319 15.8652Z"
              fill="#162A75"/>
        <path d="M25.8242 10.9437L22.369 10.0741L20.8085 8.27663L20.8401 7.80487C20.9035 6.85586 20.1857 6.03508 19.2366 5.97164L16.1723 5.76672C15.2581 5.7056 14.4631 6.36977 14.3493 7.26701L15.0494 7.06588L12.2217 8.57665C11.9854 8.7029 11.8 8.90675 11.6966 9.15393L9.87241 13.517C9.62461 14.1098 9.90419 14.7911 10.4969 15.0389C11.0859 15.2852 11.7694 15.0109 12.0189 14.4144L13.6833 10.4334L16.1458 9.1178L14.3392 10.6445L14.0785 11.268L13.7496 16.1865L13.7662 16.1876C13.7677 16.2439 13.9325 19.5361 14.0128 21.1515L11.2932 27.0167C10.9689 27.7161 11.273 28.5459 11.9724 28.8702C12.6717 29.1945 13.5016 28.8904 13.8259 28.1911L16.6904 22.0133C16.7856 21.808 16.8295 21.5827 16.8182 21.3567L16.5699 16.3751L17.1992 16.4172L18.7437 21.0103L19.3299 27.7253C19.397 28.494 20.0747 29.0617 20.8419 28.9945C21.6099 28.9275 22.1781 28.2505 22.1111 27.4825L21.5104 20.6018C21.5008 20.4917 21.4781 20.383 21.4429 20.2782L20.2123 16.6187L20.2507 16.6212L20.5883 11.5717L20.852 11.8756C21.0081 12.0553 21.2157 12.183 21.4465 12.241L25.2565 13.1999C25.8782 13.3566 26.5114 12.9798 26.6685 12.3558C26.8252 11.7327 26.4473 11.1006 25.8242 10.9437Z"
              fill="#162A75"/>
    </g>
    <defs>
        <clipPath id="clip0">
            <rect width="29" height="29" fill="white"/>
        </clipPath>
    </defs>
</svg>
