<svg width="52" height="52" viewBox="0 0 52 52" fill="none" xmlns="http://www.w3.org/2000/svg">
<circle opacity="0.4" cx="26" cy="26" r="26" fill="#DAE2FF"/>
<g clip-path="url(#clip0_2819_6614)">
<path d="M30.1087 19.0933C31.5136 19.1872 32.7286 18.1245 32.8225 16.7197C32.9164 15.3148 31.8537 14.0997 30.4488 14.0058C29.044 13.9119 27.829 14.9746 27.7351 16.3795C27.6411 17.7843 28.7038 18.9993 30.1087 19.0933Z" fill="#162A75"/>
<path d="M22.2319 29.8652C22.0829 29.8029 21.9464 29.7233 21.8237 29.6298L20.1691 33.2178L18.9302 32.6464C18.448 32.4241 17.8769 32.6347 17.6546 33.1169L14.3844 40.2083C14.1621 40.6905 14.3727 41.2615 14.8549 41.4839L15.2764 41.6783C15.2058 41.744 15.1463 41.8241 15.1034 41.9171C14.9269 42.2999 15.0941 42.7533 15.4768 42.9298C15.8596 43.1063 16.313 42.9391 16.4894 42.5563C16.5323 42.4633 16.5546 42.3661 16.5587 42.2697L16.9803 42.4641C17.4625 42.6864 18.0336 42.4758 18.2559 41.9937L21.5261 34.9022C21.7252 34.4703 21.5763 33.9679 21.1967 33.7078L22.9029 30.0078C22.6786 30.0027 22.4514 29.957 22.2319 29.8652Z" fill="#162A75"/>
<path d="M37.8242 24.9437L34.369 24.0741L32.8085 22.2766L32.8401 21.8049C32.9035 20.8559 32.1857 20.0351 31.2366 19.9716L28.1723 19.7667C27.2581 19.7056 26.4631 20.3698 26.3493 21.267L27.0494 21.0659L24.2217 22.5767C23.9854 22.7029 23.8 22.9068 23.6966 23.1539L21.8724 27.517C21.6246 28.1098 21.9042 28.7911 22.4969 29.0389C23.0859 29.2852 23.7694 29.0109 24.0189 28.4144L25.6833 24.4334L28.1458 23.1178L26.3392 24.6445L26.0785 25.268L25.7496 30.1865L25.7662 30.1876C25.7677 30.2439 25.9325 33.5361 26.0128 35.1515L23.2932 41.0167C22.9689 41.7161 23.273 42.5459 23.9724 42.8702C24.6717 43.1945 25.5016 42.8904 25.8259 42.1911L28.6904 36.0133C28.7856 35.808 28.8295 35.5827 28.8182 35.3567L28.5699 30.3751L29.1992 30.4172L30.7437 35.0103L31.3299 41.7253C31.397 42.494 32.0747 43.0617 32.8419 42.9945C33.6099 42.9275 34.1781 42.2505 34.1111 41.4825L33.5104 34.6018C33.5008 34.4917 33.4781 34.383 33.4429 34.2782L32.2123 30.6187L32.2507 30.6212L32.5883 25.5717L32.852 25.8756C33.0081 26.0553 33.2157 26.183 33.4465 26.241L37.2565 27.1999C37.8782 27.3566 38.5114 26.9798 38.6685 26.3558C38.8252 25.7327 38.4473 25.1006 37.8242 24.9437Z" fill="#162A75"/>
</g>
<defs>
<clipPath id="clip0_2819_6614">
<rect width="29" height="29" fill="white" transform="translate(12 14)"/>
</clipPath>
</defs>
</svg>
