<svg width="40" height="40" viewBox="0 0 40 40" fill="none" xmlns="http://www.w3.org/2000/svg">
<path d="M0 5C0 2.23858 2.23858 0 5 0H35C37.7614 0 40 2.23858 40 5V35C40 37.7614 37.7614 40 35 40H5C2.23858 40 0 37.7614 0 35V5Z" fill="white"/>
<path d="M19.1667 25.8333C22.8486 25.8333 25.8333 22.8486 25.8333 19.1667C25.8333 15.4848 22.8486 12.5 19.1667 12.5C15.4848 12.5 12.5 15.4848 12.5 19.1667C12.5 22.8486 15.4848 25.8333 19.1667 25.8333Z" stroke="#5087E1" stroke-width="1.66667" stroke-linecap="round" stroke-linejoin="round"/>
<path d="M27.5006 27.5L23.8756 23.875" stroke="#5087E1" stroke-width="1.66667" stroke-linecap="round" stroke-linejoin="round"/>
</svg>
