<svg width="98" height="98" viewBox="0 0 98 98" fill="none" xmlns="http://www.w3.org/2000/svg">
<g filter="url(#filter0_d)">
<circle cx="49" cy="48" r="46" fill="white"/>
</g>
<path d="M33.3312 54.8571H37.7858L70.8571 32.1206V29.0579L33.3312 54.8571Z" fill="#17A0FF"/>
<path d="M55.4286 32.5714H46.8571V35.1428H55.4286V32.5714Z" fill="#17A0FF"/>
<path d="M44.2857 36.8572C41.9227 36.8572 40 38.7799 40 41.1429V48.1919L56.4869 36.8572H44.2857Z" fill="#17A0FF"/>
<path d="M62.1727 40.1716L40.812 54.8572H62.2857V41.1429C62.2857 40.813 62.2475 40.4887 62.1727 40.1716Z" fill="#17A0FF"/>
<path d="M62.2857 61.7144H40V63.4286H62.2857V61.7144Z" fill="#17A0FF"/>
<path d="M58 24H44.2857C43.8128 24 43.4286 24.3846 43.4286 24.8571V30C43.4286 30.4725 43.8128 30.8571 44.2857 30.8571H58C58.4729 30.8571 58.8572 30.4725 58.8572 30V24.8571C58.8572 24.3846 58.4729 24 58 24Z" fill="#17A0FF"/>
<path d="M70.8571 56.5714H31.4286V60H70.8571V56.5714Z" fill="#17A0FF"/>
<path d="M27.1429 60.355V68.5715H29.7143V57.7836L27.1429 60.355Z" fill="#17A0FF"/>
<path d="M63.1429 65.1428H39.1429C37.7249 65.1428 36.5714 66.2963 36.5714 67.7143V72H65.7143V67.7143C65.7143 66.2963 64.5608 65.1428 63.1429 65.1428Z" fill="#17A0FF"/>
<defs>
<filter id="filter0_d" x="0" y="0" width="98" height="98" filterUnits="userSpaceOnUse" color-interpolation-filters="sRGB">
<feFlood flood-opacity="0" result="BackgroundImageFix"/>
<feColorMatrix in="SourceAlpha" type="matrix" values="0 0 0 0 0 0 0 0 0 0 0 0 0 0 0 0 0 0 127 0"/>
<feOffset dy="1"/>
<feGaussianBlur stdDeviation="1.5"/>
<feColorMatrix type="matrix" values="0 0 0 0 0 0 0 0 0 0 0 0 0 0 0 0 0 0 0.06 0"/>
<feBlend mode="normal" in2="BackgroundImageFix" result="effect1_dropShadow"/>
<feBlend mode="normal" in="SourceGraphic" in2="effect1_dropShadow" result="shape"/>
</filter>
</defs>
</svg>
