<svg width="40" height="40" viewBox="0 0 40 40" fill="none" xmlns="http://www.w3.org/2000/svg">
    <rect width="40" height="40" rx="5" fill="white"/>
    <path d="M24.875 13.625V15.2894C23.9744 15.56 23.3125 16.3875 23.3125 17.375C23.3125 18.3625 23.9744 19.1894 24.875 19.4606V27.375C24.875 27.72 25.155 28 25.5 28C25.845 28 26.125 27.72 26.125 27.375V19.4606C27.0256 19.19 27.6875 18.3625 27.6875 17.375C27.6875 16.3875 27.0256 15.5606 26.125 15.2894V13.625C26.125 13.2794 25.845 13 25.5 13C25.155 13 24.875 13.2794 24.875 13.625ZM26.4375 17.375C26.4375 17.8919 26.0169 18.3125 25.5 18.3125C24.9831 18.3125 24.5625 17.8919 24.5625 17.375C24.5625 16.8581 24.9831 16.4375 25.5 16.4375C26.0169 16.4375 26.4375 16.8581 26.4375 17.375Z"
          fill="#5087E1"/>
    <path d="M14.875 13.625V15.2894C13.9744 15.5606 13.3125 16.3875 13.3125 17.375C13.3125 18.3625 13.9744 19.1894 14.875 19.4606V27.375C14.875 27.72 15.155 28 15.5 28C15.845 28 16.125 27.72 16.125 27.375V19.4606C17.0256 19.1894 17.6875 18.3625 17.6875 17.375C17.6875 16.3875 17.0256 15.5606 16.125 15.2894V13.625C16.125 13.2794 15.845 13 15.5 13C15.155 13 14.875 13.2794 14.875 13.625ZM16.4375 17.375C16.4375 17.8919 16.0169 18.3125 15.5 18.3125C14.9831 18.3125 14.5625 17.8919 14.5625 17.375C14.5625 16.8581 14.9831 16.4375 15.5 16.4375C16.0169 16.4375 16.4375 16.8581 16.4375 17.375Z"
          fill="#5087E1"/>
    <path d="M19.875 13.625V21.5394C18.9744 21.8106 18.3125 22.6375 18.3125 23.625C18.3125 24.6125 18.9744 25.4394 19.875 25.7106V27.375C19.875 27.72 20.155 28 20.5 28C20.845 28 21.125 27.72 21.125 27.375V25.7106C22.0256 25.4394 22.6875 24.6125 22.6875 23.625C22.6875 22.6375 22.0256 21.8106 21.125 21.5394V13.625C21.125 13.2794 20.845 13 20.5 13C20.155 13 19.875 13.2794 19.875 13.625ZM21.4375 23.625C21.4375 24.1419 21.0169 24.5625 20.5 24.5625C19.9831 24.5625 19.5625 24.1419 19.5625 23.625C19.5625 23.1081 19.9831 22.6875 20.5 22.6875C21.0169 22.6875 21.4375 23.1081 21.4375 23.625Z"
          fill="#5087E1"/>
</svg>
