<svg width="20" height="20" viewBox="0 0 20 20" fill="none" xmlns="http://www.w3.org/2000/svg">
    <path d="M16.167 12.5001C16.0561 12.7514 16.023 13.0302 16.072 13.3006C16.121 13.5709 16.2499 13.8204 16.442 14.0168L16.492 14.0668C16.647 14.2215 16.7699 14.4054 16.8538 14.6077C16.9377 14.81 16.9808 15.0269 16.9808 15.2459C16.9808 15.4649 16.9377 15.6818 16.8538 15.8842C16.7699 16.0865 16.647 16.2703 16.492 16.4251C16.3372 16.58 16.1534 16.703 15.9511 16.7869C15.7488 16.8707 15.5319 16.9139 15.3128 16.9139C15.0938 16.9139 14.8769 16.8707 14.6746 16.7869C14.4723 16.703 14.2885 16.58 14.1337 16.4251L14.0837 16.3751C13.8873 16.183 13.6378 16.0541 13.3675 16.0051C13.0972 15.9561 12.8184 15.9892 12.567 16.1001C12.3205 16.2057 12.1103 16.3811 11.9623 16.6047C11.8142 16.8283 11.7347 17.0903 11.7337 17.3584V17.5001C11.7337 17.9421 11.5581 18.366 11.2455 18.6786C10.933 18.9912 10.509 19.1668 10.067 19.1668C9.62499 19.1668 9.20106 18.9912 8.8885 18.6786C8.57594 18.366 8.40035 17.9421 8.40035 17.5001V17.4251C8.39389 17.1493 8.30461 16.8817 8.1441 16.6573C7.9836 16.4329 7.75929 16.262 7.50035 16.1668C7.249 16.0558 6.97019 16.0227 6.69986 16.0718C6.42953 16.1208 6.18008 16.2496 5.98368 16.4418L5.93368 16.4918C5.77889 16.6467 5.59508 16.7696 5.39275 16.8535C5.19042 16.9374 4.97354 16.9806 4.75451 16.9806C4.53549 16.9806 4.31861 16.9374 4.11628 16.8535C3.91395 16.7696 3.73013 16.6467 3.57535 16.4918C3.42039 16.337 3.29745 16.1532 3.21358 15.9508C3.12971 15.7485 3.08653 15.5316 3.08653 15.3126C3.08653 15.0936 3.12971 14.8767 3.21358 14.6744C3.29745 14.472 3.42039 14.2882 3.57535 14.1334L3.62535 14.0834C3.81746 13.887 3.94633 13.6376 3.99535 13.3672C4.04437 13.0969 4.01128 12.8181 3.90035 12.5668C3.79471 12.3203 3.61931 12.1101 3.39573 11.962C3.17216 11.8139 2.91017 11.7345 2.64201 11.7334H2.50035C2.05832 11.7334 1.6344 11.5578 1.32183 11.2453C1.00927 10.9327 0.833679 10.5088 0.833679 10.0668C0.833679 9.62473 1.00927 9.2008 1.32183 8.88824C1.6344 8.57568 2.05832 8.40009 2.50035 8.40009H2.57535C2.85117 8.39363 3.11868 8.30435 3.3431 8.14385C3.56751 7.98334 3.73844 7.75903 3.83368 7.50009C3.94461 7.24874 3.9777 6.96993 3.92868 6.6996C3.87967 6.42927 3.75079 6.17982 3.55868 5.98342L3.50868 5.93342C3.35372 5.77863 3.23079 5.59482 3.14691 5.39249C3.06304 5.19016 3.01987 4.97328 3.01987 4.75425C3.01987 4.53523 3.06304 4.31835 3.14691 4.11602C3.23079 3.91369 3.35372 3.72988 3.50868 3.57509C3.66347 3.42013 3.84728 3.29719 4.04961 3.21332C4.25194 3.12945 4.46882 3.08628 4.68785 3.08628C4.90687 3.08628 5.12375 3.12945 5.32608 3.21332C5.52841 3.29719 5.71222 3.42013 5.86701 3.57509L5.91701 3.62509C6.11341 3.8172 6.36286 3.94607 6.63319 3.99509C6.90352 4.04411 7.18233 4.01102 7.43368 3.90009H7.50035C7.74682 3.79445 7.95703 3.61905 8.10509 3.39547C8.25315 3.1719 8.33261 2.90991 8.33368 2.64175V2.50009C8.33368 2.05806 8.50927 1.63414 8.82184 1.32158C9.1344 1.00901 9.55832 0.83342 10.0003 0.83342C10.4424 0.83342 10.8663 1.00901 11.1789 1.32158C11.4914 1.63414 11.667 2.05806 11.667 2.50009V2.57509C11.6681 2.84324 11.7475 3.10523 11.8956 3.32881C12.0437 3.55238 12.2539 3.72778 12.5003 3.83342C12.7517 3.94435 13.0305 3.97744 13.3008 3.92842C13.5712 3.87941 13.8206 3.75053 14.017 3.55842L14.067 3.50842C14.2218 3.35346 14.4056 3.23053 14.6079 3.14665C14.8103 3.06278 15.0272 3.01961 15.2462 3.01961C15.4652 3.01961 15.6821 3.06278 15.8844 3.14665C16.0867 3.23053 16.2706 3.35346 16.4253 3.50842C16.5803 3.66321 16.7032 3.84702 16.7871 4.04935C16.871 4.25168 16.9142 4.46856 16.9142 4.68759C16.9142 4.90661 16.871 5.12349 16.7871 5.32582C16.7032 5.52815 16.5803 5.71196 16.4253 5.86675L16.3753 5.91675C16.1832 6.11315 16.0544 6.3626 16.0053 6.63293C15.9563 6.90326 15.9894 7.18207 16.1003 7.43342V7.50009C16.206 7.74656 16.3814 7.95677 16.605 8.10483C16.8285 8.25289 17.0905 8.33235 17.3587 8.33342H17.5003C17.9424 8.33342 18.3663 8.50902 18.6789 8.82158C18.9914 9.13414 19.167 9.55806 19.167 10.0001C19.167 10.4421 18.9914 10.866 18.6789 11.1786C18.3663 11.4912 17.9424 11.6668 17.5003 11.6668H17.4253C17.1572 11.6678 16.8952 11.7473 16.6716 11.8953C16.4481 12.0434 16.2726 12.2536 16.167 12.5001V12.5001Z"
          stroke="#162A75" stroke-width="1.66667" stroke-linecap="round" stroke-linejoin="round"/>
</svg>
