<svg width="20" height="20" viewBox="0 0 20 20" fill="none" xmlns="http://www.w3.org/2000/svg">
<path d="M10 13.125C8.275 13.125 6.875 11.725 6.875 10C6.875 8.275 8.275 6.875 10 6.875C11.725 6.875 13.125 8.275 13.125 10C13.125 11.725 11.725 13.125 10 13.125ZM10 8.125C8.96667 8.125 8.125 8.96667 8.125 10C8.125 11.0333 8.96667 11.875 10 11.875C11.0333 11.875 11.875 11.0333 11.875 10C11.875 8.96667 11.0333 8.125 10 8.125Z" fill="#718096"/>
<path d="M12.6748 18.4917C12.4998 18.4917 12.3248 18.4667 12.1498 18.425C11.6332 18.2834 11.1998 17.9584 10.9248 17.5L10.8248 17.3334C10.3332 16.4834 9.65817 16.4834 9.1665 17.3334L9.07484 17.4917C8.79984 17.9584 8.3665 18.2917 7.84984 18.425C7.32484 18.5667 6.78317 18.4917 6.32484 18.2167L4.8915 17.3917C4.38317 17.1 4.0165 16.625 3.85817 16.05C3.70817 15.475 3.78317 14.8834 4.07484 14.375C4.3165 13.95 4.38317 13.5667 4.2415 13.325C4.09984 13.0834 3.7415 12.9417 3.24984 12.9417C2.03317 12.9417 1.0415 11.95 1.0415 10.7334V9.26671C1.0415 8.05005 2.03317 7.05838 3.24984 7.05838C3.7415 7.05838 4.09984 6.91671 4.2415 6.67505C4.38317 6.43338 4.32484 6.05005 4.07484 5.62505C3.78317 5.11671 3.70817 4.51671 3.85817 3.95005C4.00817 3.37505 4.37484 2.90005 4.8915 2.60838L6.33317 1.78338C7.27484 1.22505 8.5165 1.55005 9.08317 2.50838L9.18317 2.67505C9.67484 3.52505 10.3498 3.52505 10.8415 2.67505L10.9332 2.51671C11.4998 1.55005 12.7415 1.22505 13.6915 1.79171L15.1248 2.61671C15.6332 2.90838 15.9998 3.38338 16.1582 3.95838C16.3082 4.53338 16.2332 5.12505 15.9415 5.63338C15.6998 6.05838 15.6332 6.44171 15.7748 6.68338C15.9165 6.92505 16.2748 7.06671 16.7665 7.06671C17.9832 7.06671 18.9748 8.05838 18.9748 9.27504V10.7417C18.9748 11.9584 17.9832 12.95 16.7665 12.95C16.2748 12.95 15.9165 13.0917 15.7748 13.3334C15.6332 13.575 15.6915 13.9584 15.9415 14.3834C16.2332 14.8917 16.3165 15.4917 16.1582 16.0584C16.0082 16.6334 15.6415 17.1084 15.1248 17.4L13.6832 18.225C13.3665 18.4 13.0248 18.4917 12.6748 18.4917ZM9.99984 15.4084C10.7415 15.4084 11.4332 15.875 11.9082 16.7L11.9998 16.8584C12.0998 17.0334 12.2665 17.1584 12.4665 17.2084C12.6665 17.2584 12.8665 17.2334 13.0332 17.1334L14.4748 16.3C14.6915 16.175 14.8582 15.9667 14.9248 15.7167C14.9915 15.4667 14.9582 15.2084 14.8332 14.9917C14.3582 14.175 14.2998 13.3334 14.6665 12.6917C15.0332 12.05 15.7915 11.6834 16.7415 11.6834C17.2748 11.6834 17.6998 11.2584 17.6998 10.725V9.25838C17.6998 8.73338 17.2748 8.30005 16.7415 8.30005C15.7915 8.30005 15.0332 7.93338 14.6665 7.29171C14.2998 6.65005 14.3582 5.80838 14.8332 4.99171C14.9582 4.77505 14.9915 4.51671 14.9248 4.26671C14.8582 4.01671 14.6998 3.81671 14.4832 3.68338L13.0415 2.85838C12.6832 2.64171 12.2082 2.76671 11.9915 3.13338L11.8998 3.29171C11.4248 4.11671 10.7332 4.58338 9.9915 4.58338C9.24984 4.58338 8.55817 4.11671 8.08317 3.29171L7.9915 3.12505C7.78317 2.77505 7.3165 2.65005 6.95817 2.85838L5.5165 3.69171C5.29984 3.81671 5.13317 4.02505 5.0665 4.27505C4.99984 4.52505 5.03317 4.78338 5.15817 5.00005C5.63317 5.81671 5.6915 6.65838 5.32484 7.30005C4.95817 7.94171 4.19984 8.30838 3.24984 8.30838C2.7165 8.30838 2.2915 8.73338 2.2915 9.26671V10.7334C2.2915 11.2584 2.7165 11.6917 3.24984 11.6917C4.19984 11.6917 4.95817 12.0584 5.32484 12.7C5.6915 13.3417 5.63317 14.1834 5.15817 15C5.03317 15.2167 4.99984 15.475 5.0665 15.725C5.13317 15.975 5.2915 16.175 5.50817 16.3084L6.94984 17.1334C7.12484 17.2417 7.33317 17.2667 7.52484 17.2167C7.72484 17.1667 7.8915 17.0334 7.99984 16.8584L8.0915 16.7C8.5665 15.8834 9.25817 15.4084 9.99984 15.4084Z" fill="#718096"/>
</svg>
