<svg width="44" height="44" viewBox="0 0 44 44" fill="none" xmlns="http://www.w3.org/2000/svg">
<rect width="44" height="44" rx="3.85965" fill="#27AE60" fill-opacity="0.2"/>
<path d="M12.4086 15.1063C12.6139 15.1968 12.8405 15.2276 13.0625 15.1954C13.2204 15.4096 13.445 15.5654 13.701 15.6384C13.957 15.7114 14.23 15.6974 14.4772 15.5987C14.7243 15.4999 14.9318 15.322 15.0671 15.0927C15.2023 14.8635 15.2577 14.5958 15.2246 14.3317C15.4335 14.1713 15.5839 13.9468 15.6528 13.6926C15.7218 13.4385 15.7055 13.1687 15.6063 12.9247C15.5072 12.6808 15.3308 12.4761 15.1041 12.342C14.8775 12.208 14.6131 12.152 14.3515 12.1826C14.1949 11.9676 13.9714 11.8104 13.716 11.7358C13.4606 11.6612 13.1877 11.6733 12.9399 11.7702C12.6921 11.8671 12.4833 12.0434 12.3463 12.2715C12.2093 12.4995 12.1517 12.7666 12.1825 13.0309C12.0114 13.1556 11.8761 13.3233 11.7905 13.5169C11.7048 13.7106 11.6718 13.9235 11.6947 14.134C11.7177 14.3446 11.7957 14.5453 11.9211 14.716C12.0464 14.8867 12.2146 15.0214 12.4086 15.1063ZM12.4185 13.7974C12.4455 13.7352 12.4845 13.6791 12.5333 13.6321C12.5822 13.5852 12.6398 13.5484 12.703 13.5239C12.745 13.5075 12.7834 13.4829 12.8159 13.4516C12.8485 13.4203 12.8746 13.3829 12.8927 13.3416C12.9107 13.3002 12.9205 13.2557 12.9214 13.2105C12.9223 13.1654 12.9143 13.1205 12.8978 13.0785C12.8726 13.0153 12.8601 12.9478 12.8611 12.8798C12.862 12.8118 12.8765 12.7446 12.9035 12.6822C12.9305 12.6198 12.9697 12.5633 13.0186 12.5161C13.0676 12.4689 13.1254 12.4318 13.1887 12.407C13.2521 12.3822 13.3197 12.3702 13.3877 12.3716C13.4557 12.3731 13.5228 12.388 13.585 12.4155C13.6472 12.443 13.7034 12.4825 13.7503 12.5318C13.7971 12.5811 13.8338 12.6392 13.8581 12.7027C13.8914 12.7876 13.9569 12.8558 14.0405 12.8924C14.124 12.9289 14.2186 12.9308 14.3035 12.8976C14.4293 12.8489 14.5691 12.8514 14.693 12.9047C14.8169 12.9579 14.915 13.0576 14.9662 13.1824C15.0173 13.3072 15.0176 13.447 14.9668 13.5719C14.916 13.6969 14.8182 13.7969 14.6945 13.8506C14.613 13.8856 14.5482 13.9507 14.5136 14.0324C14.479 14.1141 14.4773 14.206 14.5089 14.2888C14.5099 14.2915 14.511 14.2943 14.5122 14.2971C14.5614 14.4242 14.5583 14.5656 14.5035 14.6905C14.4487 14.8153 14.3468 14.9134 14.2199 14.9632C14.093 15.0131 13.9515 15.0106 13.8264 14.9564C13.7013 14.9023 13.6028 14.8007 13.5523 14.6741C13.5362 14.6303 13.5113 14.5902 13.4792 14.5563C13.4471 14.5223 13.4084 14.4953 13.3655 14.4769C13.3226 14.4584 13.2763 14.4489 13.2296 14.4489C13.1829 14.4489 13.1367 14.4585 13.0938 14.4769C13.0874 14.4797 13.0809 14.4826 13.0732 14.4863C12.9783 14.5222 12.8749 14.5293 12.776 14.5067C12.677 14.4841 12.587 14.4328 12.5171 14.3592C12.4472 14.2856 12.4006 14.1931 12.383 14.0932C12.3655 13.9932 12.3778 13.8903 12.4185 13.7974Z" fill="#27AE60"/>
<path d="M24.6785 14.899C24.6269 15.1601 24.6633 15.4309 24.7821 15.6691C24.9008 15.9073 25.0951 16.0994 25.3347 16.2153C25.5742 16.3313 25.8454 16.3646 26.1059 16.31C26.3663 16.2554 26.6014 16.116 26.7742 15.9136C27.0335 15.9594 27.3006 15.9189 27.5346 15.7983C27.7687 15.6777 27.9568 15.4837 28.07 15.246C28.1832 15.0083 28.2154 14.74 28.1616 14.4823C28.1078 14.2246 27.971 13.9916 27.7721 13.8191C27.8255 13.5584 27.7909 13.2874 27.6739 13.0484C27.5568 12.8094 27.3639 12.616 27.1252 12.4984C26.8865 12.3808 26.6155 12.3456 26.3547 12.3984C26.0939 12.4512 25.8579 12.589 25.6838 12.7902C25.4205 12.7364 25.1467 12.7722 24.9061 12.8921C24.6656 13.0119 24.472 13.2088 24.3564 13.4514C24.2407 13.694 24.2095 13.9684 24.2679 14.2307C24.3262 14.4931 24.4707 14.7283 24.6783 14.899H24.6785ZM24.9799 13.7414C25.0404 13.6187 25.1471 13.5251 25.2765 13.4811C25.406 13.4371 25.5477 13.4464 25.6703 13.5068C25.7521 13.5471 25.8466 13.5533 25.9329 13.5239C26.0192 13.4946 26.0903 13.4322 26.1306 13.3504C26.1606 13.2897 26.2022 13.2354 26.253 13.1908C26.3039 13.1461 26.3631 13.1119 26.4272 13.0901C26.4914 13.0683 26.5591 13.0594 26.6267 13.0638C26.6943 13.0682 26.7603 13.0859 26.8211 13.1158C26.8818 13.1457 26.9361 13.1873 26.9807 13.2382C27.0254 13.2891 27.0596 13.3483 27.0814 13.4124C27.1032 13.4765 27.1121 13.5443 27.1077 13.6119C27.1033 13.6794 27.0856 13.7455 27.0557 13.8062C27.0154 13.888 27.0092 13.9824 27.0386 14.0688C27.0679 14.1551 27.1303 14.2262 27.2121 14.2665C27.335 14.3252 27.4296 14.4303 27.4753 14.5586C27.5209 14.6869 27.5139 14.8281 27.4557 14.9513C27.3976 15.0744 27.293 15.1695 27.1649 15.2158C27.0367 15.262 26.8955 15.2556 26.7721 15.198C26.6901 15.1609 26.5968 15.1574 26.5122 15.1883C26.4277 15.2192 26.3586 15.2821 26.3199 15.3634C26.3196 15.3641 26.3193 15.3647 26.319 15.3653C26.2586 15.488 26.152 15.5817 26.0225 15.6258C25.893 15.6698 25.7514 15.6607 25.6287 15.6003C25.506 15.5399 25.4123 15.4332 25.3682 15.3037C25.3242 15.1742 25.3333 15.0326 25.3937 14.9099C25.3956 14.9064 25.3974 14.9028 25.399 14.8993C25.4187 14.858 25.4299 14.8132 25.4321 14.7675C25.4342 14.7218 25.4272 14.6762 25.4115 14.6333C25.3957 14.5903 25.3716 14.551 25.3405 14.5175C25.3094 14.484 25.2719 14.457 25.2302 14.4382C25.2238 14.4353 25.2173 14.4326 25.2095 14.4293C25.0884 14.3678 24.9965 14.2612 24.9536 14.1324C24.9106 14.0037 24.9201 13.8632 24.9799 13.7414Z" fill="#27AE60"/>
<path d="M32.3098 23.6778C32.3094 23.6738 31.9585 22.2602 31.9585 22.2602C31.9399 22.1859 31.897 22.1198 31.8365 22.0727C31.7761 22.0255 31.7016 21.9998 31.625 21.9998H30.9375V19.3204L31.941 16.979C31.9634 16.9267 31.9725 16.8697 31.9674 16.813C31.9623 16.7563 31.9433 16.7018 31.912 16.6543C31.8807 16.6069 31.838 16.5679 31.788 16.5409C31.7379 16.5139 31.6819 16.4998 31.625 16.4998H30.25C30.1862 16.4998 30.1236 16.5176 30.0693 16.5512C30.015 16.5847 29.9711 16.6328 29.9425 16.6898L28.9113 18.7523C28.8874 18.8001 28.875 18.8527 28.875 18.9061V21.9998H27.3738L27.4657 21.2651C27.7009 21.1913 27.9019 21.0357 28.0323 20.8265C28.1626 20.6173 28.2137 20.3683 28.1763 20.1246C28.1389 19.8809 28.0155 19.6587 27.8283 19.4983C27.6412 19.3378 27.4028 19.2497 27.1562 19.2498H26.7618C26.8082 19.0952 26.823 18.9328 26.8052 18.7723C26.7874 18.6118 26.7374 18.4566 26.6583 18.3158C26.5792 18.1751 26.4725 18.0517 26.3446 17.9531C26.2167 17.8545 26.0703 17.7827 25.9141 17.742C25.8468 17.4845 25.696 17.2566 25.4854 17.0939C25.2748 16.9312 25.0161 16.843 24.75 16.843C24.4838 16.843 24.2252 16.9312 24.0146 17.0939C23.8039 17.2566 23.6532 17.4845 23.5859 17.742C23.3751 17.7978 23.1833 17.9098 23.0312 18.0662C22.8791 17.9098 22.6874 17.7978 22.4766 17.742C22.4387 17.5991 22.3748 17.4645 22.2879 17.3449C22.4171 17.264 22.5296 17.1591 22.6192 17.0358C22.8812 17.0613 23.1443 17.0003 23.3683 16.862C23.5923 16.7237 23.7648 16.5158 23.8593 16.2701C23.9539 16.0245 23.9653 15.7545 23.8917 15.5018C23.8182 15.249 23.6639 15.0273 23.4523 14.8706C23.4851 14.6066 23.4295 14.3392 23.2942 14.1102C23.1589 13.8811 22.9515 13.7033 22.7045 13.6046C22.4575 13.5058 22.1847 13.4917 21.9288 13.5643C21.6729 13.637 21.4483 13.7923 21.29 14.0061C21.0233 13.9728 20.7531 14.0296 20.5225 14.1677C20.2919 14.3057 20.1142 14.517 20.0177 14.7678C19.9212 15.0187 19.9114 15.2946 19.9899 15.5516C20.0685 15.8086 20.2308 16.0319 20.4511 16.186C20.4164 16.485 20.4946 16.7862 20.6705 17.0305C20.4129 17.1933 20.2265 17.4475 20.1485 17.742C19.9376 17.7978 19.7459 17.9098 19.5937 18.0662C19.4416 17.9098 19.2499 17.7978 19.039 17.742C18.9979 17.5866 18.9261 17.4409 18.8276 17.3138C18.9767 17.0784 19.0397 16.7987 19.0059 16.5222C19.2147 16.3618 19.3651 16.1373 19.434 15.8832C19.5029 15.629 19.4866 15.3593 19.3875 15.1154C19.2883 14.8714 19.1119 14.6667 18.8853 14.5327C18.6587 14.3986 18.3943 14.3426 18.1328 14.3733C17.9761 14.1582 17.7526 14.001 17.4972 13.9264C17.2417 13.8518 16.9687 13.8639 16.7209 13.9609C16.4731 14.0579 16.2644 14.2342 16.1274 14.4624C15.9904 14.6905 15.9329 14.9576 15.9638 15.222C15.7467 15.3802 15.5888 15.6066 15.5152 15.865C15.4417 16.1234 15.4567 16.399 15.5579 16.6479C15.6591 16.8968 15.8407 17.1047 16.0737 17.2384C16.3067 17.3722 16.5778 17.4241 16.8437 17.3859C16.8483 17.3922 16.8535 17.398 16.8582 17.4042C16.7918 17.5085 16.742 17.6225 16.7107 17.7422C16.5 17.7979 16.3084 17.9099 16.1564 18.0662C16.0043 17.9098 15.8126 17.7978 15.6017 17.742C15.5345 17.4845 15.3837 17.2566 15.1731 17.0939C14.9624 16.9312 14.7038 16.843 14.4377 16.843C14.1715 16.843 13.9129 16.9312 13.7022 17.0939C13.4916 17.2566 13.3409 17.4845 13.2736 17.742C13.1141 17.7839 12.9649 17.858 12.8353 17.9599C12.7056 18.0617 12.5983 18.1891 12.5199 18.3342C12.4415 18.4792 12.3938 18.6389 12.3796 18.8031C12.3654 18.9674 12.3852 19.1328 12.4376 19.2892C12.224 19.3497 12.0357 19.4775 11.9006 19.6536C11.7655 19.8297 11.6908 20.0447 11.6876 20.2666C11.6845 20.4885 11.753 20.7056 11.883 20.8855C12.013 21.0653 12.1976 21.1985 12.4094 21.2651L13.7527 32.0116C13.7632 32.0946 13.8036 32.171 13.8664 32.2264C13.9292 32.2818 14.01 32.3123 14.0937 32.3123H25.7812C25.865 32.3123 25.9459 32.2817 26.0087 32.2263C26.0715 32.1708 26.1119 32.0944 26.1223 32.0112L26.3162 30.46L26.4705 32.0026C26.4789 32.0875 26.5186 32.1662 26.5818 32.2234C26.645 32.2806 26.7272 32.3123 26.8125 32.3123H30.9375C31.0227 32.3123 31.1049 32.2807 31.1681 32.2235C31.2313 32.1664 31.271 32.0878 31.2795 32.003L31.9361 25.4373H31.9687C32.0599 25.4373 32.1473 25.4011 32.2118 25.3367C32.2763 25.2722 32.3125 25.1848 32.3125 25.0936C32.3125 25.0936 32.3108 23.6861 32.3098 23.6778ZM31.625 24.7498H26.125V24.0623H31.625V24.7498ZM30.8469 29.4197L26.8322 28.7113L26.6933 27.3224L30.981 28.079L30.8469 29.4197ZM31.5285 23.3748H26.2215L26.3934 22.6873H31.3566L31.5285 23.3748ZM29.5625 18.9873L30.4624 17.1873H31.1037L30.2777 19.1144C30.2594 19.1572 30.25 19.2033 30.25 19.2498V21.9998H29.5625V18.9873ZM23.8906 18.3905C23.9818 18.3905 24.0692 18.3542 24.1337 18.2898C24.1981 18.2253 24.2344 18.1379 24.2344 18.0467C24.2344 17.91 24.2887 17.7788 24.3854 17.6821C24.4821 17.5854 24.6132 17.5311 24.75 17.5311C24.8867 17.5311 25.0179 17.5854 25.1146 17.6821C25.2113 17.7788 25.2656 17.91 25.2656 18.0467C25.2656 18.1379 25.3018 18.2253 25.3663 18.2898C25.4308 18.3542 25.5182 18.3905 25.6094 18.3905C25.709 18.3903 25.8065 18.4191 25.89 18.4732C25.9736 18.5274 26.0397 18.6046 26.0803 18.6956C26.1209 18.7865 26.1342 18.8873 26.1187 18.9857C26.1031 19.0841 26.0594 19.1758 25.9928 19.2498H23.5071C23.4405 19.1758 23.3968 19.084 23.3813 18.9857C23.3657 18.8873 23.3791 18.7865 23.4197 18.6956C23.4603 18.6046 23.5264 18.5274 23.6099 18.4732C23.6935 18.4191 23.791 18.3903 23.8906 18.3905ZM20.6621 15.0088C20.6872 14.9459 20.7245 14.8886 20.7718 14.8402C20.8191 14.7917 20.8755 14.753 20.9377 14.7264C21 14.6997 21.0669 14.6855 21.1346 14.6847C21.2023 14.6839 21.2695 14.6964 21.3324 14.7216C21.3743 14.7384 21.4191 14.7467 21.4643 14.7462C21.5094 14.7456 21.554 14.7362 21.5955 14.7184C21.637 14.7006 21.6746 14.6748 21.7061 14.6425C21.7376 14.6102 21.7625 14.572 21.7793 14.5301C21.8044 14.4672 21.8417 14.4099 21.889 14.3614C21.9363 14.313 21.9926 14.2743 22.0549 14.2476C22.1171 14.2209 22.184 14.2068 22.2517 14.206C22.3194 14.2051 22.3866 14.2177 22.4495 14.2428C22.5124 14.2679 22.5697 14.3052 22.6181 14.3525C22.6666 14.3998 22.7053 14.4562 22.7319 14.5184C22.7586 14.5807 22.7728 14.6475 22.7736 14.7153C22.7744 14.783 22.7619 14.8502 22.7368 14.913C22.72 14.955 22.7116 14.9998 22.7122 15.0449C22.7127 15.0901 22.7222 15.1347 22.74 15.1762C22.7577 15.2177 22.7835 15.2552 22.8158 15.2868C22.8482 15.3183 22.8864 15.3432 22.9283 15.3599C23.0528 15.4108 23.1525 15.5083 23.2061 15.6317C23.2596 15.7551 23.2628 15.8946 23.2149 16.0203C23.167 16.146 23.0718 16.248 22.9497 16.3044C22.8276 16.3609 22.6883 16.3673 22.5615 16.3224C22.4767 16.2917 22.3832 16.2956 22.3013 16.3331C22.2193 16.3707 22.1553 16.4389 22.1232 16.5232V16.5235C22.0714 16.649 21.9721 16.7491 21.847 16.8018C21.7218 16.8546 21.5809 16.8559 21.4548 16.8054C21.3287 16.7549 21.2277 16.6566 21.1736 16.532C21.1195 16.4074 21.1168 16.2665 21.166 16.1399C21.1674 16.1365 21.1688 16.1331 21.1701 16.1297C21.1863 16.0871 21.1939 16.0417 21.1924 15.9962C21.1909 15.9506 21.1804 15.9058 21.1615 15.8644C21.1425 15.8229 21.1155 15.7856 21.082 15.7547C21.0485 15.7238 21.0092 15.6999 20.9664 15.6843C20.9595 15.6818 20.9527 15.6795 20.9441 15.6767C20.8188 15.6248 20.7189 15.5256 20.6661 15.4006C20.6134 15.2756 20.6119 15.1349 20.6621 15.0088ZM20.4531 18.3905C20.5443 18.3905 20.6317 18.3542 20.6962 18.2898C20.7606 18.2253 20.7969 18.1379 20.7969 18.0467C20.7969 17.91 20.8512 17.7788 20.9479 17.6821C21.0446 17.5854 21.1757 17.5311 21.3125 17.5311C21.4492 17.5311 21.5804 17.5854 21.6771 17.6821C21.7738 17.7788 21.8281 17.91 21.8281 18.0467C21.8281 18.1379 21.8643 18.2253 21.9288 18.2898C21.9933 18.3542 22.0807 18.3905 22.1719 18.3905C22.3086 18.3906 22.4396 18.445 22.5363 18.5417C22.633 18.6383 22.6873 18.7694 22.6875 18.9061C22.6876 19.0332 22.6404 19.1558 22.5549 19.2498H20.0696C20.003 19.1758 19.9593 19.084 19.9438 18.9857C19.9282 18.8873 19.9416 18.7865 19.9822 18.6956C20.0228 18.6046 20.0889 18.5274 20.1724 18.4732C20.256 18.4191 20.3535 18.3903 20.4531 18.3905ZM16.4656 16.6671C16.3722 16.6262 16.293 16.5585 16.238 16.4726C16.183 16.3867 16.1548 16.2865 16.1568 16.1845C16.1588 16.0825 16.191 15.9835 16.2493 15.8998C16.3076 15.8161 16.3895 15.7517 16.4844 15.7145C16.5265 15.6981 16.5649 15.6735 16.5974 15.6422C16.63 15.6109 16.656 15.5735 16.6741 15.5322C16.6922 15.4908 16.702 15.4463 16.7029 15.4011C16.7038 15.356 16.6957 15.3111 16.6793 15.2691C16.6539 15.2059 16.6413 15.1383 16.6422 15.0702C16.643 15.0021 16.6574 14.9348 16.6844 14.8723C16.7114 14.8098 16.7506 14.7533 16.7996 14.7059C16.8486 14.6586 16.9064 14.6215 16.9699 14.5967C17.0333 14.5719 17.101 14.5599 17.1691 14.5614C17.2372 14.5629 17.3043 14.5778 17.3666 14.6054C17.4288 14.633 17.485 14.6726 17.5319 14.7221C17.5788 14.7715 17.6154 14.8297 17.6396 14.8933C17.6728 14.9782 17.7384 15.0465 17.8219 15.083C17.9055 15.1195 18.0001 15.1214 18.085 15.0882C18.2107 15.0398 18.3503 15.0425 18.474 15.0958C18.5977 15.1491 18.6956 15.2487 18.7467 15.3734C18.7979 15.498 18.7982 15.6376 18.7475 15.7625C18.6969 15.8873 18.5995 15.9873 18.476 16.0411C18.3953 16.0758 18.331 16.14 18.2961 16.2206C18.2613 16.3011 18.2586 16.392 18.2886 16.4745C18.2901 16.4786 18.2917 16.4831 18.2935 16.4874C18.3359 16.5982 18.3388 16.7203 18.3018 16.833C18.2647 16.9457 18.1898 17.0422 18.0898 17.1062C17.9899 17.1701 17.8709 17.1977 17.753 17.1841C17.6351 17.1705 17.5255 17.1167 17.4427 17.0317C17.3956 16.9835 17.3585 16.9263 17.3336 16.8637L17.3326 16.8612C17.3161 16.8178 17.291 16.7783 17.2588 16.7449C17.2266 16.7116 17.188 16.685 17.1453 16.667C17.1026 16.6489 17.0567 16.6397 17.0103 16.6398C16.9639 16.64 16.9181 16.6495 16.8755 16.6678C16.8691 16.6706 16.8626 16.6735 16.8548 16.6773C16.7288 16.7252 16.5889 16.7216 16.4656 16.6671ZM17.0156 18.3905C17.1068 18.3905 17.1942 18.3542 17.2587 18.2898C17.3231 18.2253 17.3594 18.1379 17.3594 18.0467C17.3592 17.9637 17.3793 17.882 17.4177 17.8085C17.6883 17.9026 17.9837 17.8967 18.2503 17.7919C18.2698 17.7843 18.2883 17.7753 18.3071 17.7668C18.3614 17.8501 18.3904 17.9473 18.3906 18.0467C18.3906 18.1379 18.4268 18.2253 18.4913 18.2898C18.5558 18.3542 18.6432 18.3905 18.7344 18.3905C18.8711 18.3906 19.0021 18.445 19.0988 18.5417C19.1955 18.6383 19.2498 18.7694 19.25 18.9061C19.2501 19.0332 19.2028 19.1558 19.1173 19.2498H16.6321C16.5655 19.1758 16.5218 19.084 16.5063 18.9857C16.4907 18.8873 16.5041 18.7865 16.5447 18.6956C16.5853 18.6046 16.6514 18.5274 16.7349 18.4732C16.8185 18.4191 16.916 18.3903 17.0156 18.3905ZM13.5781 18.3905C13.6693 18.3905 13.7567 18.3542 13.8212 18.2898C13.8856 18.2253 13.9219 18.1379 13.9219 18.0467C13.9219 17.91 13.9762 17.7788 14.0729 17.6821C14.1696 17.5854 14.3007 17.5311 14.4375 17.5311C14.5742 17.5311 14.7054 17.5854 14.8021 17.6821C14.8988 17.7788 14.9531 17.91 14.9531 18.0467C14.9531 18.1379 14.9893 18.2253 15.0538 18.2898C15.1183 18.3542 15.2057 18.3905 15.2969 18.3905C15.4336 18.3906 15.5646 18.445 15.6613 18.5417C15.758 18.6383 15.8123 18.7694 15.8125 18.9061C15.8126 19.0332 15.7653 19.1558 15.6799 19.2498H13.1946C13.128 19.1758 13.0843 19.084 13.0688 18.9857C13.0532 18.8873 13.0666 18.7865 13.1072 18.6956C13.1478 18.6046 13.2139 18.5274 13.2974 18.4732C13.381 18.4191 13.4785 18.3903 13.5781 18.3905ZM12.7187 19.9373H27.1562C27.2474 19.9373 27.3348 19.9736 27.3993 20.038C27.4638 20.1025 27.5 20.1899 27.5 20.2811C27.5 20.3723 27.4638 20.4597 27.3993 20.5242C27.3348 20.5886 27.2474 20.6248 27.1562 20.6248H12.7187C12.6276 20.6248 12.5401 20.5886 12.4757 20.5242C12.4112 20.4597 12.375 20.3723 12.375 20.2811C12.375 20.1899 12.4112 20.1025 12.4757 20.038C12.5401 19.9736 12.6276 19.9373 12.7187 19.9373ZM23.0421 31.6248L23.1783 27.2695C23.4182 26.5923 23.4392 25.8568 23.2382 25.1671C23.2426 25.1469 23.2452 25.1264 23.2459 25.1058L23.3644 21.3123H24.7278L24.0833 31.6248H23.0421ZM15.7917 31.6248L15.1472 21.3123H16.5106L16.6316 25.1853C16.4336 25.8792 16.4595 26.6179 16.7058 27.2963C16.7011 27.3207 16.6992 27.3455 16.6999 27.3704L16.8328 31.6248H15.7917ZM20.625 21.3123V22.7565C20.1713 22.6643 19.7037 22.6643 19.25 22.7565V21.3123H20.625ZM22.5943 23.9463C22.2493 23.5263 21.8102 23.1936 21.3125 22.9752V21.3123H22.6766L22.5943 23.9463ZM18.5625 22.9752C18.0648 23.1936 17.6256 23.5263 17.2807 23.9463L17.1984 21.3123H18.5625V22.9752ZM17.4219 28.4641C17.7428 28.8093 18.131 29.085 18.5625 29.2745V31.6248H17.5207L17.4219 28.4641ZM19.25 29.4932C19.7037 29.5854 20.1713 29.5854 20.625 29.4932V31.6248H19.25V29.4932ZM19.9375 28.8748C19.3936 28.8748 18.8619 28.7136 18.4097 28.4114C17.9574 28.1092 17.605 27.6797 17.3968 27.1772C17.1887 26.6747 17.1342 26.1218 17.2403 25.5883C17.3464 25.0549 17.6083 24.5649 17.9929 24.1803C18.3775 23.7957 18.8675 23.5338 19.401 23.4277C19.9344 23.3216 20.4874 23.376 20.9899 23.5842C21.4924 23.7923 21.9219 24.1448 22.224 24.597C22.5262 25.0493 22.6875 25.5809 22.6875 26.1248C22.6867 26.8539 22.3967 27.5529 21.8811 28.0685C21.3656 28.584 20.6666 28.874 19.9375 28.8748ZM13.1081 21.3123H14.4583L15.1028 31.6248H14.3972L13.1081 21.3123ZM21.3125 31.6248V29.2745C21.744 29.085 22.1322 28.8092 22.4531 28.4641L22.3543 31.6248H21.3125ZM25.4778 31.6248H24.7722L25.4167 21.3123H26.7669L26.6809 21.9998H26.125C26.0483 21.9998 25.9739 22.0255 25.9134 22.0727C25.853 22.1198 25.8101 22.1859 25.7915 22.2602C25.7915 22.2602 25.4406 23.6739 25.4402 23.6777C25.4392 23.686 25.4375 25.0936 25.4375 25.0936C25.4375 25.1848 25.4737 25.2722 25.5382 25.3367C25.6026 25.4011 25.6901 25.4373 25.7812 25.4373H25.8139L26.0103 27.4013C26.0052 27.4186 26.0015 27.4362 25.9991 27.454L25.4778 31.6248ZM27.1235 31.6248L26.9032 29.4219L30.7785 30.1057L30.6264 31.6248H27.1235ZM31.0495 27.393L26.6223 26.6117L26.5048 25.4373H31.2451L31.0495 27.393Z" fill="#27AE60"/>
</svg>
