<svg width="20" height="20" viewBox="0 0 20 20" fill="none" xmlns="http://www.w3.org/2000/svg">
<path d="M14.7166 18.8917C14.2749 18.8917 13.7083 18.75 12.9999 18.3334L10.5083 16.8584C10.2499 16.7084 9.74994 16.7084 9.49994 16.8584L6.99994 18.3334C5.52493 19.2084 4.65827 18.8584 4.2666 18.575C3.88327 18.2917 3.28327 17.5667 3.67494 15.9L4.2666 13.3417C4.33327 13.075 4.19994 12.6167 3.99994 12.4167L1.93327 10.35C0.899935 9.3167 0.983269 8.43337 1.12494 8.00004C1.2666 7.5667 1.7166 6.80004 3.14994 6.55837L5.80827 6.1167C6.05827 6.07504 6.4166 5.80837 6.52494 5.58337L7.99994 2.6417C8.6666 1.30004 9.5416 1.10004 9.99994 1.10004C10.4583 1.10004 11.3333 1.30004 11.9999 2.6417L13.4666 5.57504C13.5833 5.80004 13.9416 6.0667 14.1916 6.10837L16.8499 6.55004C18.2916 6.7917 18.7416 7.55837 18.8749 7.9917C19.0083 8.42504 19.0916 9.30837 18.0666 10.3417L15.9999 12.4167C15.7999 12.6167 15.6749 13.0667 15.7333 13.3417L16.3249 15.9C16.7083 17.5667 16.1166 18.2917 15.7333 18.575C15.5249 18.725 15.1916 18.8917 14.7166 18.8917ZM9.99994 15.4917C10.4083 15.4917 10.8166 15.5917 11.1416 15.7834L13.6333 17.2584C14.3583 17.6917 14.8166 17.6917 14.9916 17.5667C15.1666 17.4417 15.2916 17 15.1083 16.1834L14.5166 13.625C14.3583 12.9334 14.6166 12.0417 15.1166 11.5334L17.1833 9.4667C17.5916 9.05837 17.7749 8.65837 17.6916 8.38337C17.5999 8.10837 17.2166 7.88337 16.6499 7.7917L13.9916 7.35004C13.3499 7.2417 12.6499 6.72504 12.3583 6.1417L10.8916 3.20837C10.6249 2.67504 10.2916 2.35837 9.99994 2.35837C9.70827 2.35837 9.37494 2.67504 9.1166 3.20837L7.6416 6.1417C7.34994 6.72504 6.64994 7.2417 6.00827 7.35004L3.35827 7.7917C2.7916 7.88337 2.40827 8.10837 2.3166 8.38337C2.22494 8.65837 2.4166 9.0667 2.82494 9.4667L4.8916 11.5334C5.3916 12.0334 5.64994 12.9334 5.4916 13.625L4.89994 16.1834C4.70827 17.0084 4.8416 17.4417 5.0166 17.5667C5.1916 17.6917 5.6416 17.6834 6.37494 17.2584L8.8666 15.7834C9.18327 15.5917 9.5916 15.4917 9.99994 15.4917Z" fill="#718096"/>
</svg>
