<svg width="18" height="18" viewBox="0 0 18 18" fill="none" xmlns="http://www.w3.org/2000/svg">
    <rect x="0.5" y="0.5" width="17" height="17" rx="1.5" stroke="#162A75"/>
    <path d="M5.50002 6.66634H11.9167V7.83301H5.50002V6.66634Z" fill="#162A75"/>
    <path d="M10.75 8.41634H5.50002V9.58301H10.75V8.41634Z" fill="#162A75"/>
    <path fill-rule="evenodd" clip-rule="evenodd"
          d="M3.16669 6.08301C3.16669 5.11651 3.95019 4.33301 4.91669 4.33301H13.0834C14.0499 4.33301 14.8334 5.11651 14.8334 6.08301V10.7497C14.8334 11.7162 14.0499 12.4997 13.0834 12.4997H8.0278L4.91669 14.833V12.4997C3.95019 12.4997 3.16669 11.7162 3.16669 10.7497V6.08301ZM4.91669 5.49967C4.59452 5.49967 4.33335 5.76084 4.33335 6.08301V10.7497C4.33335 11.0718 4.59452 11.333 4.91669 11.333H6.08335V12.4997L7.63891 11.333H13.0834C13.4055 11.333 13.6667 11.0718 13.6667 10.7497V6.08301C13.6667 5.76084 13.4055 5.49967 13.0834 5.49967H4.91669Z"
          fill="#162A75"/>
</svg>
