<svg width="29" height="29" viewBox="0 0 29 29" fill="none" xmlns="http://www.w3.org/2000/svg">
    <path d="M18.125 14.9531H16.7656C16.4051 14.9531 16.0593 15.0963 15.8044 15.3513C15.5495 15.6062 15.4062 15.952 15.4062 16.3125V17.6719H18.125V14.9531Z"
          fill="#27AE60"/>
    <path d="M16.7656 23.5625C17.2661 23.5625 17.6719 23.1568 17.6719 22.6562C17.6719 22.1557 17.2661 21.75 16.7656 21.75C16.2651 21.75 15.8594 22.1557 15.8594 22.6562C15.8594 23.1568 16.2651 23.5625 16.7656 23.5625Z"
          fill="#27AE60"/>
    <path d="M19.4844 10.875C20.571 10.8759 21.6475 11.084 22.6562 11.4881V6.34375H1.8125V22.2031C1.8125 22.5637 1.95572 22.9094 2.21065 23.1643C2.46558 23.4193 2.81135 23.5625 3.17188 23.5625H11.905C11.1984 22.2513 10.8442 20.7791 10.8772 19.29C10.9101 17.8008 11.329 16.3458 12.0929 15.0671C12.8568 13.7884 13.9395 12.7299 15.2351 11.995C16.5307 11.2602 17.9949 10.8743 19.4844 10.875Z"
          fill="#27AE60"/>
    <path d="M21.75 16.3125C21.75 15.952 21.6068 15.6062 21.3518 15.3513C21.0969 15.0963 20.7512 14.9531 20.3906 14.9531H19.0312V17.6719H21.75V16.3125Z"
          fill="#27AE60"/>
    <path d="M22.2031 23.5625C22.7036 23.5625 23.1094 23.1568 23.1094 22.6562C23.1094 22.1557 22.7036 21.75 22.2031 21.75C21.7026 21.75 21.2969 22.1557 21.2969 22.6562C21.2969 23.1568 21.7026 23.5625 22.2031 23.5625Z"
          fill="#27AE60"/>
    <path d="M19.4843 11.7812C17.9608 11.7813 16.4715 12.233 15.2047 13.0795C13.9379 13.9259 12.9506 15.129 12.3676 16.5365C11.7845 17.9441 11.632 19.4929 11.9292 20.9872C12.2264 22.4814 12.9601 23.854 14.0374 24.9313C15.1147 26.0086 16.4873 26.7423 17.9815 27.0395C19.4758 27.3367 21.0246 27.1842 22.4322 26.6011C23.8397 26.0181 25.0428 25.0308 25.8892 23.764C26.7357 22.4972 27.1874 21.0079 27.1874 19.4844C27.1852 17.4421 26.3729 15.4841 24.9287 14.04C23.4846 12.5958 21.5266 11.7835 19.4843 11.7812ZM24.9218 23.1094H23.9512C23.8523 23.498 23.6268 23.8425 23.3102 24.0886C22.9936 24.3347 22.604 24.4683 22.2031 24.4683C21.8021 24.4683 21.4125 24.3347 21.096 24.0886C20.7794 23.8425 20.5538 23.498 20.4549 23.1094H18.5137C18.4148 23.498 18.1893 23.8425 17.8727 24.0886C17.5561 24.3347 17.1665 24.4683 16.7656 24.4683C16.3646 24.4683 15.975 24.3347 15.6585 24.0886C15.3419 23.8425 15.1163 23.498 15.0174 23.1094H14.9531C14.5925 23.1094 14.2468 22.9662 13.9918 22.7112C13.7369 22.4563 13.5937 22.1105 13.5937 21.75V19.0312C13.594 18.7502 13.6813 18.4761 13.8436 18.2466C14.0058 18.0171 14.2351 17.8434 14.4999 17.7494V16.3125C14.5007 15.7118 14.7396 15.136 15.1643 14.7113C15.5891 14.2865 16.1649 14.0476 16.7656 14.0469H20.3906C20.9912 14.0476 21.5671 14.2865 21.9918 14.7113C22.4165 15.136 22.6555 15.7118 22.6562 16.3125V17.6719H23.1093C23.71 17.6726 24.2858 17.9115 24.7106 18.3363C25.1353 18.761 25.3742 19.3368 25.3749 19.9375V22.6562C25.3749 22.7764 25.3272 22.8917 25.2422 22.9767C25.1572 23.0616 25.042 23.1094 24.9218 23.1094Z"
          fill="#27AE60"/>
    <path d="M22.6562 4.07812C22.6562 3.7176 22.513 3.37183 22.2581 3.1169C22.0032 2.86197 21.6574 2.71875 21.2969 2.71875H19.9375V3.625H19.0312V2.71875H16.3125V3.625H15.4062V2.71875H12.6875V3.625H11.7812V2.71875H9.0625V3.625H8.15625V2.71875H5.4375V3.625H4.53125V2.71875H3.17188C2.81135 2.71875 2.46558 2.86197 2.21065 3.1169C1.95572 3.37183 1.8125 3.7176 1.8125 4.07812V5.4375H22.6562V4.07812Z"
          fill="#27AE60"/>
    <path d="M23.1094 18.5781H14.9531C14.8329 18.5781 14.7177 18.6259 14.6327 18.7108C14.5477 18.7958 14.5 18.9111 14.5 19.0312V21.75C14.5 21.8702 14.5477 21.9854 14.6327 22.0704C14.7177 22.1554 14.8329 22.2031 14.9531 22.2031H15.0175C15.1164 21.8145 15.3419 21.47 15.6585 21.2239C15.9751 20.9778 16.3646 20.8442 16.7656 20.8442C17.1666 20.8442 17.5562 20.9778 17.8727 21.2239C18.1893 21.47 18.4149 21.8145 18.5138 22.2031H20.455C20.5539 21.8145 20.7794 21.47 21.096 21.2239C21.4126 20.9778 21.8021 20.8442 22.2031 20.8442C22.6041 20.8442 22.9937 20.9778 23.3102 21.2239C23.6268 21.47 23.8524 21.8145 23.9513 22.2031H24.4688V19.9375C24.4688 19.577 24.3255 19.2312 24.0706 18.9763C23.8157 18.7213 23.4699 18.5781 23.1094 18.5781Z"
          fill="#27AE60"/>
    <path d="M11.7812 0.90625H12.6875V2.71875H11.7812V0.90625Z" fill="#27AE60"/>
    <path d="M8.15625 0.90625H9.0625V2.71875H8.15625V0.90625Z" fill="#27AE60"/>
    <path d="M4.53125 0.90625H5.4375V2.71875H4.53125V0.90625Z" fill="#27AE60"/>
    <path d="M15.4062 0.90625H16.3125V2.71875H15.4062V0.90625Z" fill="#27AE60"/>
    <path d="M19.0312 0.90625H19.9375V2.71875H19.0312V0.90625Z" fill="#27AE60"/>
</svg>
