<svg width="19" height="19" viewBox="0 0 19 19" fill="none" xmlns="http://www.w3.org/2000/svg">
<path d="M2.375 4.75H3.95833H16.625" stroke="#5087E1" stroke-width="1.58333" stroke-linecap="round" stroke-linejoin="round"/>
<path d="M6.33331 4.74998V3.16665C6.33331 2.74672 6.50013 2.34399 6.79706 2.04706C7.09399 1.75013 7.49672 1.58331 7.91665 1.58331H11.0833C11.5032 1.58331 11.906 1.75013 12.2029 2.04706C12.4998 2.34399 12.6666 2.74672 12.6666 3.16665V4.74998M15.0416 4.74998V15.8333C15.0416 16.2532 14.8748 16.656 14.5779 16.9529C14.281 17.2498 13.8782 17.4166 13.4583 17.4166H5.54165C5.12172 17.4166 4.71899 17.2498 4.42206 16.9529C4.12513 16.656 3.95831 16.2532 3.95831 15.8333V4.74998H15.0416Z" stroke="#5087E1" stroke-width="1.58333" stroke-linecap="round" stroke-linejoin="round"/>
</svg>
