<svg width="19" height="19" viewBox="0 0 19 19" fill="none" xmlns="http://www.w3.org/2000/svg">
    <path d="M2.375 4.75H3.95833H16.625" stroke="#EB5757" stroke-width="1.58333" stroke-linecap="round"
          stroke-linejoin="round"/>
    <path d="M6.33333 4.75065V3.16732C6.33333 2.74739 6.50015 2.34466 6.79708 2.04773C7.09401 1.7508 7.49674 1.58398 7.91667 1.58398H11.0833C11.5033 1.58398 11.906 1.7508 12.2029 2.04773C12.4999 2.34466 12.6667 2.74739 12.6667 3.16732V4.75065M15.0417 4.75065V15.834C15.0417 16.2539 14.8749 16.6566 14.5779 16.9536C14.281 17.2505 13.8783 17.4173 13.4583 17.4173H5.54167C5.12174 17.4173 4.71901 17.2505 4.42208 16.9536C4.12515 16.6566 3.95833 16.2539 3.95833 15.834V4.75065H15.0417Z"
          stroke="#EB5757" stroke-width="1.58333" stroke-linecap="round" stroke-linejoin="round"/>
</svg>
