<svg width="20" height="20" viewBox="0 0 20 20" fill="none" xmlns="http://www.w3.org/2000/svg">
<path d="M14.0833 18.3333H5.91665C4.49998 18.3333 3.33331 17.175 3.33331 15.75V4.24999C3.33331 2.83333 4.49165 1.66666 5.91665 1.66666H14.0833C15.5 1.66666 16.6666 2.82499 16.6666 4.24999V15.75C16.6666 17.175 15.5083 18.3333 14.0833 18.3333Z" stroke="#718096" stroke-width="1.25" stroke-linecap="round" stroke-linejoin="round"/>
<path d="M15.4166 10.8333H4.58331C3.89165 10.8333 3.33331 10.275 3.33331 9.58332V7.91666C3.33331 7.22499 3.89165 6.66666 4.58331 6.66666H15.4166C16.1083 6.66666 16.6666 7.22499 16.6666 7.91666V9.58332C16.6666 10.275 16.1083 10.8333 15.4166 10.8333Z" stroke="#718096" stroke-width="1.25" stroke-linecap="round" stroke-linejoin="round"/>
<path d="M7.07878 14.7499H7.08626" stroke="#718096" stroke-width="2.08333" stroke-linecap="round" stroke-linejoin="round"/>
<path d="M12.9121 14.7499H12.9196" stroke="#718096" stroke-width="2.08333" stroke-linecap="round" stroke-linejoin="round"/>
<path d="M7.91669 4.16666H12.0834" stroke="#718096" stroke-width="1.25" stroke-linecap="round" stroke-linejoin="round"/>
</svg>
