<svg width="44" height="44" viewBox="0 0 44 44" fill="none" xmlns="http://www.w3.org/2000/svg">
<rect width="44" height="44" rx="3.85965" fill="#F2C94C" fill-opacity="0.2"/>
<path d="M21.99 12C16.47 12 12 16.48 12 22C12 27.52 16.47 32 21.99 32C27.52 32 32 27.52 32 22C32 16.48 27.52 12 21.99 12ZM22 30C17.58 30 14 26.42 14 22C14 17.58 17.58 14 22 14C26.42 14 30 17.58 30 22C30 26.42 26.42 30 22 30Z" fill="#F2C94C"/>
<path d="M22.5 17H21V23L26.25 26.15L27 24.92L22.5 22.25V17Z" fill="#F2C94C"/>
</svg>
