<svg width="93" height="46" viewBox="0 0 93 46" fill="none" xmlns="http://www.w3.org/2000/svg">
    <path d="M76.6453 4.669L77.1043 3.24096L76.6453 4.669ZM48.2409 32.4512C49.0052 32.771 49.8839 32.4107 50.2037 31.6464C50.5235 30.8822 50.1632 30.0035 49.399 29.6837L48.2409 32.4512ZM3.37461 45.6219C6.86686 36.2316 14.7334 22.9607 26.9059 13.749C39.0114 4.58795 55.3941 -0.586163 76.1863 6.09704L77.1043 3.24096C55.2785 -3.77448 37.8903 1.67419 25.0956 11.3567C12.368 20.9886 4.20523 34.782 0.562768 44.5762L3.37461 45.6219ZM76.1863 6.09704C82.8475 8.23813 86.6591 9.97388 88.4641 11.3401C89.3917 12.0422 89.4949 12.4287 89.4999 12.4653C89.5002 12.4672 89.4996 12.4612 89.5009 12.4541C89.5021 12.4481 89.5015 12.4577 89.4867 12.4855C89.4532 12.5485 89.3573 12.683 89.1203 12.8724C88.6314 13.2628 87.7861 13.6956 86.5395 14.1403C85.3166 14.5765 83.8094 14.9892 82.0767 15.3843C78.6102 16.1748 74.3618 16.8682 69.9096 17.5446C65.4798 18.2176 60.8427 18.8744 56.6818 19.5849C52.535 20.293 48.7486 21.0721 46.0228 22.0132C44.6728 22.4793 43.4607 23.0251 42.585 23.7002C41.7132 24.3722 40.8869 25.4178 41.0881 26.8199C41.2675 28.0699 42.2141 29.0616 43.3081 29.8589C44.4605 30.6988 46.0998 31.5553 48.2409 32.4512L49.399 29.6837C47.3484 28.8257 45.9537 28.0749 45.0751 27.4346C44.1382 26.7517 44.0572 26.3901 44.0577 26.3938C44.08 26.5496 43.9238 26.456 44.4166 26.0761C44.9055 25.6992 45.7525 25.2803 47.0018 24.8489C49.4747 23.9952 53.0478 23.2489 57.1868 22.5421C61.3116 21.8377 65.8865 21.1902 70.3602 20.5106C74.8115 19.8343 79.1582 19.1269 82.7437 18.3092C84.537 17.9003 86.1701 17.4572 87.5474 16.9659C88.9008 16.4831 90.1156 15.9168 90.9924 15.2165C91.873 14.5132 92.6635 13.4524 92.472 12.0573C92.2995 10.8004 91.3764 9.78201 90.2746 8.94804C88.0208 7.24203 83.7613 5.38069 77.1043 3.24096L76.1863 6.09704Z"
          fill="#17A0FF"/>
</svg>
