<svg width="44" height="44" viewBox="0 0 44 44" fill="none" xmlns="http://www.w3.org/2000/svg">
<rect width="44" height="44" rx="3.85965" transform="matrix(-1 0 0 1 44 0)" fill="#DAE2FF"/>
<g clip-path="url(#clip0_18_802)">
<path d="M10.9515 13.7742H30.9599C32.1214 13.7742 33.1092 14.5663 33.3619 15.701C34.7935 22.1434 34.7243 21.8215 34.7314 21.8883C34.7389 21.9584 34.7362 21.6605 34.7362 26.4867C34.7362 27.6173 33.8164 28.5371 32.6858 28.5371H31.3518C30.9867 29.9505 29.7008 30.9975 28.175 30.9975C26.6491 30.9975 25.3632 29.9505 24.9981 28.5371H16.9989C16.6338 29.9505 15.3479 30.9975 13.8221 30.9975C12.2962 30.9975 11.0104 29.9505 10.6452 28.5371H10.5414C9.41086 28.5371 8.49105 27.6173 8.49105 26.4867V16.2347C8.49105 14.878 9.59478 13.7742 10.9515 13.7742ZM10.1314 16.2347V19.5153H13.0019V15.4145H10.9515C10.4993 15.4145 10.1314 15.7824 10.1314 16.2347ZM17.5128 19.5153V15.4145H14.6423V19.5153H17.5128ZM22.0237 19.5153V15.4145H19.1531V19.5153H22.0237ZM26.5346 19.5153V15.4145H23.664V19.5153H26.5346ZM31.7607 16.0572C31.6764 15.6788 31.3471 15.4145 30.9599 15.4145H28.1749V19.8965L30.0636 21.1556H32.8937L31.7607 16.0572ZM28.1749 29.3572C29.0794 29.3572 29.8152 28.6214 29.8152 27.7169C29.8152 26.8124 29.0794 26.0766 28.1749 26.0766C27.2704 26.0766 26.5346 26.8124 26.5346 27.7169C26.5346 28.6214 27.2705 29.3572 28.1749 29.3572ZM13.8221 29.3572C14.7266 29.3572 15.4624 28.6214 15.4624 27.7169C15.4624 26.8124 14.7266 26.0766 13.8221 26.0766C12.9176 26.0766 12.1818 26.8124 12.1818 27.7169C12.1818 28.6214 12.9177 29.3572 13.8221 29.3572ZM10.5414 26.8967H10.6452C11.0104 25.4834 12.2962 24.4363 13.8221 24.4363C15.3479 24.4363 16.6338 25.4834 16.9989 26.8967H24.9981C25.3632 25.4834 26.6491 24.4363 28.1749 24.4363C29.7008 24.4363 30.9866 25.4834 31.3518 26.8967H32.6858C32.9119 26.8967 33.0959 26.7128 33.0959 26.4867V25.6665H32.6858C32.2328 25.6665 31.8656 25.2993 31.8656 24.8463C31.8656 24.3934 32.2328 24.0262 32.6858 24.0262H33.0959V22.7959H29.8152C29.6533 22.7959 29.495 22.748 29.3603 22.6582L27.1064 21.1556H10.1314V26.4867C10.1314 26.7128 10.3153 26.8967 10.5414 26.8967Z" fill="#162A75"/>
</g>
<defs>
<clipPath id="clip0_18_802">
<rect width="26.2456" height="26.2456" fill="white" transform="matrix(-1 0 0 1 34.7368 9.26318)"/>
</clipPath>
</defs>
</svg>
