<svg width="44" height="43" viewBox="0 0 44 43" fill="none" xmlns="http://www.w3.org/2000/svg">
<rect width="44" height="43" rx="3.85965" fill="#DAE2FF"/>
<g clip-path="url(#clip0_593_6323)">
<path d="M33.0485 13.4609H13.0402C11.8786 13.4609 10.8908 14.2351 10.6382 15.344C9.20658 21.64 9.27573 21.3254 9.2686 21.3906C9.26117 21.4591 9.26378 21.168 9.26378 25.8845C9.26378 26.9894 10.1836 27.8883 11.3142 27.8883H12.6482C13.0134 29.2696 14.2992 30.2929 15.8251 30.2929C17.3509 30.2929 18.6368 29.2696 19.0019 27.8883H27.0011C27.3662 29.2696 28.6521 30.2929 30.1779 30.2929C31.7038 30.2929 32.9897 29.2696 33.3548 27.8883H33.4586C34.5892 27.8883 35.509 26.9894 35.509 25.8845V15.8655C35.509 14.5396 34.4053 13.4609 33.0485 13.4609ZM33.8687 15.8655V19.0716H30.9981V15.064H33.0485C33.5007 15.064 33.8687 15.4236 33.8687 15.8655ZM26.4872 19.0716V15.064H29.3578V19.0716H26.4872ZM21.9763 19.0716V15.064H24.8469V19.0716H21.9763ZM17.4654 19.0716V15.064H20.336V19.0716H17.4654ZM12.2393 15.6921C12.3236 15.3223 12.6529 15.064 13.0402 15.064H15.8251V19.4441L13.9364 20.6746H11.1064L12.2393 15.6921ZM15.8251 28.6898C14.9206 28.6898 14.1848 27.9707 14.1848 27.0868C14.1848 26.2029 14.9206 25.4837 15.8251 25.4837C16.7296 25.4837 17.4654 26.2029 17.4654 27.0868C17.4654 27.9707 16.7296 28.6898 15.8251 28.6898ZM30.1779 28.6898C29.2735 28.6898 28.5376 27.9707 28.5376 27.0868C28.5376 26.2029 29.2735 25.4837 30.1779 25.4837C31.0824 25.4837 31.8183 26.2029 31.8183 27.0868C31.8183 27.9707 31.0824 28.6898 30.1779 28.6898ZM33.4586 26.2853H33.3548C32.9897 24.904 31.7038 23.8807 30.1779 23.8807C28.6521 23.8807 27.3662 24.904 27.0011 26.2853H19.002C18.6368 24.904 17.351 23.8807 15.8251 23.8807C14.2993 23.8807 13.0134 24.904 12.6483 26.2853H11.3142C11.0881 26.2853 10.9042 26.1055 10.9042 25.8845V25.083H11.3142C11.7672 25.083 12.1344 24.7241 12.1344 24.2815C12.1344 23.8388 11.7672 23.4799 11.3142 23.4799H10.9042V22.2777H14.1848C14.3467 22.2777 14.505 22.2308 14.6397 22.1431L16.8936 20.6746H33.8687V25.8845C33.8687 26.1055 33.6847 26.2853 33.4586 26.2853Z" fill="#162A75"/>
</g>
<defs>
<clipPath id="clip0_593_6323">
<rect width="26.2456" height="25.6491" fill="white" transform="translate(9.26318 9.05273)"/>
</clipPath>
</defs>
</svg>
