<svg width="44" height="44" viewBox="0 0 44 44" fill="none" xmlns="http://www.w3.org/2000/svg">
<rect width="44" height="44" rx="3.85965" fill="#F2994A" fill-opacity="0.3"/>
<g clip-path="url(#clip0)">
<path d="M33.0485 13.7739H13.0401C11.8786 13.7739 10.8908 14.5661 10.6382 15.7007C9.20656 22.1432 9.27571 21.8213 9.26859 21.888C9.26115 21.9581 9.26377 21.6602 9.26377 26.4864C9.26377 27.617 10.1836 28.5368 11.3142 28.5368H12.6482C13.0133 29.9502 14.2992 30.9973 15.8251 30.9973C17.3509 30.9973 18.6368 29.9502 19.0019 28.5368H27.0011C27.3662 29.9502 28.6521 30.9973 30.1779 30.9973C31.7038 30.9973 32.9896 29.9502 33.3548 28.5368H33.4586C34.5892 28.5368 35.509 27.617 35.509 26.4864V16.2344C35.509 14.8777 34.4052 13.7739 33.0485 13.7739ZM33.8686 16.2344V19.5151H30.9981V15.4142H33.0485C33.5007 15.4142 33.8686 15.7822 33.8686 16.2344ZM26.4872 19.5151V15.4142H29.3578V19.5151H26.4872ZM21.9763 19.5151V15.4142H24.8469V19.5151H21.9763ZM17.4654 19.5151V15.4142H20.336V19.5151H17.4654ZM12.2393 16.057C12.3236 15.6785 12.6529 15.4142 13.0401 15.4142H15.8251V19.8963L13.9364 21.1554H11.1064L12.2393 16.057ZM15.8251 29.357C14.9206 29.357 14.1848 28.6211 14.1848 27.7167C14.1848 26.8122 14.9206 26.0763 15.8251 26.0763C16.7296 26.0763 17.4654 26.8122 17.4654 27.7167C17.4654 28.6211 16.7295 29.357 15.8251 29.357ZM30.1779 29.357C29.2734 29.357 28.5376 28.6211 28.5376 27.7167C28.5376 26.8122 29.2734 26.0763 30.1779 26.0763C31.0824 26.0763 31.8182 26.8122 31.8182 27.7167C31.8182 28.6211 31.0824 29.357 30.1779 29.357ZM33.4586 26.8965H33.3548C32.9896 25.4831 31.7038 24.436 30.1779 24.436C28.6521 24.436 27.3662 25.4831 27.0011 26.8965H19.0019C18.6368 25.4831 17.351 24.436 15.8251 24.436C14.2992 24.436 13.0134 25.4831 12.6483 26.8965H11.3142C11.0881 26.8965 10.9041 26.7125 10.9041 26.4864V25.6663H11.3142C11.7672 25.6663 12.1344 25.299 12.1344 24.8461C12.1344 24.3932 11.7672 24.0259 11.3142 24.0259H10.9041V22.7957H14.1848C14.3467 22.7957 14.505 22.7478 14.6397 22.658L16.8936 21.1554H33.8686V26.4864C33.8686 26.7126 33.6847 26.8965 33.4586 26.8965Z" fill="#162A75"/>
</g>
<defs>
<clipPath id="clip0">
<rect width="26.2456" height="26.2456" fill="white" transform="translate(9.26316 9.26318)"/>
</clipPath>
</defs>
</svg>
