<svg width="20" height="20" viewBox="0 0 20 20" fill="none" xmlns="http://www.w3.org/2000/svg">
<path d="M10.8335 8.125H5.8335C5.49183 8.125 5.2085 7.84167 5.2085 7.5C5.2085 7.15833 5.49183 6.875 5.8335 6.875H10.8335C11.1752 6.875 11.4585 7.15833 11.4585 7.5C11.4585 7.84167 11.1752 8.125 10.8335 8.125Z" fill="#718096"/>
<path d="M15.8667 12.3333C14.6084 12.3333 13.5418 11.3999 13.4418 10.1999C13.3751 9.50827 13.6251 8.83329 14.1251 8.34162C14.5418 7.90829 15.1334 7.66663 15.7584 7.66663H17.5001C18.3251 7.69163 18.9584 8.34159 18.9584 9.14159V10.8583C18.9584 11.6583 18.3251 12.3083 17.5251 12.3333H15.8667ZM17.4751 8.91663H15.7667C15.4751 8.91663 15.2084 9.02496 15.0168 9.22496C14.7751 9.45829 14.6584 9.77494 14.6918 10.0916C14.7334 10.6416 15.2667 11.0833 15.8667 11.0833H17.5001C17.6084 11.0833 17.7084 10.9833 17.7084 10.8583V9.14159C17.7084 9.01659 17.6084 8.92496 17.4751 8.91663Z" fill="#718096"/>
<path d="M13.3332 17.7083H5.83317C2.9665 17.7083 1.0415 15.7833 1.0415 12.9167V7.08334C1.0415 4.51667 2.62482 2.65834 5.08315 2.35001C5.30815 2.31668 5.5665 2.29167 5.83317 2.29167H13.3332C13.5332 2.29167 13.7915 2.3 14.0582 2.34167C16.5165 2.625 18.1248 4.49167 18.1248 7.08334V8.29168C18.1248 8.63335 17.8415 8.91668 17.4998 8.91668H15.7665C15.4748 8.91668 15.2082 9.02501 15.0165 9.22501L15.0082 9.23335C14.7748 9.45835 14.6665 9.76665 14.6915 10.0833C14.7332 10.6333 15.2665 11.075 15.8665 11.075H17.4998C17.8415 11.075 18.1248 11.3583 18.1248 11.7V12.9083C18.1248 15.7833 16.1998 17.7083 13.3332 17.7083ZM5.83317 3.54167C5.63317 3.54167 5.44149 3.55833 5.24983 3.58333C3.41649 3.81666 2.2915 5.15001 2.2915 7.08334V12.9167C2.2915 15.0667 3.68317 16.4583 5.83317 16.4583H13.3332C15.4832 16.4583 16.8748 15.0667 16.8748 12.9167V12.3333H15.8665C14.6082 12.3333 13.5415 11.4 13.4415 10.2C13.3748 9.51666 13.6248 8.83335 14.1248 8.35002C14.5582 7.90835 15.1415 7.66668 15.7665 7.66668H16.8748V7.08334C16.8748 5.13334 15.7331 3.79165 13.8831 3.57499C13.6831 3.54165 13.5082 3.54167 13.3332 3.54167H5.83317Z" fill="#718096"/>
</svg>
