<svg width="18" height="18" viewBox="0 0 18 18" fill="none" xmlns="http://www.w3.org/2000/svg">
<rect x="0.5" y="0.5" width="17" height="17" rx="1.5" stroke="#162A75"/>
<path fill-rule="evenodd" clip-rule="evenodd" d="M12.3653 7.17696H14.8334C14.8334 5.07868 13.646 3.85291 11.6342 3.85291H6.36601C4.35416 3.85291 3.16675 5.07868 3.16675 7.15019V11.6733C3.16675 13.7448 4.35416 14.9706 6.36601 14.9706H11.6342C13.646 14.9706 14.8334 13.7448 14.8334 11.6733V11.4806H12.3653C11.2198 11.4806 10.2912 10.522 10.2912 9.33947C10.2912 8.15697 11.2198 7.19837 12.3653 7.19837V7.17696ZM12.3658 8.09754H14.3984C14.6389 8.09754 14.8339 8.29884 14.8339 8.54717V10.1102C14.8311 10.3573 14.6378 10.5569 14.3984 10.5598H12.4125C11.8326 10.5679 11.3255 10.158 11.1939 9.5749C11.1281 9.21293 11.2205 8.83943 11.4466 8.55448C11.6726 8.26953 12.0091 8.10227 12.3658 8.09754ZM12.4536 9.74087H12.6454C12.8917 9.74087 13.0914 9.53477 13.0914 9.28053C13.0914 9.0263 12.8917 8.8202 12.6454 8.8202H12.4536C12.3358 8.81877 12.2224 8.86607 12.1386 8.95155C12.0548 9.03703 12.0077 9.15358 12.0077 9.27518C12.0076 9.5303 12.2065 9.73794 12.4536 9.74087ZM5.93068 7.17685H9.22327C9.46955 7.17685 9.66919 6.97075 9.66919 6.71652C9.66919 6.46228 9.46955 6.25618 9.22327 6.25618H5.93068C5.68641 6.25616 5.48759 6.45902 5.48475 6.71116C5.48473 6.96628 5.68356 7.17392 5.93068 7.17685Z" fill="#162A75"/>
</svg>
